<svg width="48" height="48" viewBox="0 0 48 48" fill="none" xmlns="http://www.w3.org/2000/svg">
<rect width="48" height="48" rx="24" fill="#F5F5F5"/>
<path d="M25.4644 25.3C27.3949 25.3 28.5532 25.2886 29.5533 25.6818C30.41 26.0188 31.1687 26.5655 31.7593 27.2717C32.4489 28.0962 32.8031 29.1988 33.4136 31.0305L33.6636 31.7785C33.7348 31.992 33.6985 32.2269 33.567 32.4094C33.4354 32.5916 33.2244 32.7004 32.9996 32.7004H14.9996C14.7748 32.7003 14.5637 32.5917 14.4322 32.4094C14.3007 32.2269 14.2645 31.9919 14.3355 31.7785L14.5855 31.0305C15.196 29.199 15.5505 28.0962 16.2398 27.2717C16.8303 26.5655 17.5893 26.0189 18.4459 25.6818C19.446 25.2885 20.6044 25.3 22.5347 25.3H25.4644ZM22.5347 26.7004C20.485 26.7004 19.6519 26.7119 18.9586 26.9846C18.32 27.2358 17.7543 27.6437 17.314 28.1701C16.8507 28.7244 16.5794 29.4814 15.9722 31.3H32.0269C31.4196 29.481 31.1486 28.7244 30.6851 28.1701C30.2448 27.6436 29.6793 27.2358 29.0406 26.9846C28.3473 26.712 27.5142 26.7004 25.4644 26.7004H22.5347ZM23.9996 14.5998C26.4295 14.5999 28.399 16.5702 28.399 19.0002C28.3988 21.43 26.4294 23.3995 23.9996 23.3996C21.5698 23.3994 19.5994 21.4299 19.5992 19.0002C19.5992 16.5703 21.5697 14.6 23.9996 14.5998ZM23.9996 16.0002C22.3429 16.0004 20.9996 17.3435 20.9996 19.0002C20.9998 20.6567 22.343 22 23.9996 22.0002C25.6562 22.0001 26.9994 20.6568 26.9996 19.0002C26.9996 17.3434 25.6563 16.0003 23.9996 16.0002Z" fill="black"/>
</svg>
