<svg width="56" height="56" viewBox="0 0 56 56" fill="none" xmlns="http://www.w3.org/2000/svg">
<path d="M41.5333 24.7333L4.66663 17.7333V46.6667L43.4 54.6L41.5333 24.7333Z" fill="white"/>
<path d="M38.7694 14.965C33.9999 13.7597 29.2081 12.6346 24.3935 11.6238C19.6121 10.6199 14.8069 9.73256 9.97757 8.99185C9.01588 8.84435 8.05654 8.72171 7.1102 8.49423C6.65962 8.38593 6.20955 8.29062 5.74962 8.23143C5.37985 8.18383 4.98158 8.16215 4.62581 8.29398C3.99038 8.52935 3.65612 9.04622 3.58371 9.70109C3.5356 10.1362 3.627 10.5705 3.6532 11.0043C3.72606 12.2094 3.73043 13.4228 3.76414 14.6297C3.90213 19.5754 4.00124 24.5221 4.06144 29.4694C4.09185 31.9651 4.10647 34.461 4.14516 36.9565C4.18386 39.452 4.14287 41.948 4.19114 44.4437C4.20279 45.0461 4.20044 45.6567 4.17328 46.2587C4.15933 46.5673 4.40248 46.8579 4.69128 46.939C7.09838 47.6152 9.53321 48.1747 11.967 48.7461C14.4008 49.3176 16.839 49.8702 19.2775 50.4207C24.1256 51.5151 28.9805 52.5788 33.842 53.6116C36.5819 54.1938 39.3227 54.7714 42.0643 55.3455C42.4591 55.4281 42.9186 55.23 43.0153 54.8055C43.1044 54.4142 42.8977 53.948 42.4754 53.8545C42.3902 53.8356 42.3044 53.8179 42.22 53.7958C42.1981 53.79 42.1744 53.7803 42.152 53.7775C42.1441 53.7752 42.1362 53.7727 42.1283 53.77C42.246 53.8031 42.3531 53.8662 42.439 53.9532L42.6378 54.2942L42.6369 54.2911L42.559 54.8867L42.5606 54.8839L42.2833 55.1612C42.3013 55.1493 42.038 55.2539 42.1278 55.2296C42.1929 55.212 41.8767 55.2564 41.9933 55.2479C42.0498 55.2438 42.1064 55.236 42.1627 55.2292C42.3607 55.2051 42.5656 55.184 42.7565 55.1217C43.3223 54.937 43.7179 54.54 43.7637 53.927C43.8095 53.3139 43.7846 52.6831 43.7863 52.0668C43.7882 51.434 43.7846 50.8012 43.7766 50.1685C43.7425 47.4566 43.6234 44.7447 43.4683 42.0372C43.3069 39.2194 43.1339 36.4028 42.9462 33.5867C42.7603 30.7975 42.5705 28.0085 42.4103 25.2177C42.2602 22.6022 42.1453 19.9859 42.0773 17.367C42.0692 17.0565 42.0606 16.7459 42.0564 16.4353C42.051 16.0463 41.718 15.6732 41.3125 15.6914C40.914 15.7092 40.5628 16.0183 40.5686 16.4353C40.6055 19.1111 40.717 21.7833 40.8653 24.4552C41.0255 27.3419 41.2212 30.2265 41.4144 33.1112C41.6092 36.0205 41.8068 38.9301 41.9591 41.8421C42.1047 44.6273 42.2047 47.4157 42.2363 50.2047C42.2438 50.8606 42.2464 51.5167 42.2433 52.1727C42.2409 52.6488 42.2354 53.1249 42.2265 53.601C42.225 53.6811 42.2239 53.7612 42.2217 53.8413C42.2156 54.0641 42.2481 53.7577 42.226 53.833C42.2654 53.6991 42.2635 53.7272 42.3514 53.6222C42.3291 53.6488 42.2251 53.738 42.3411 53.6434C42.4535 53.5518 42.3452 53.6262 42.3128 53.6487C42.2411 53.6983 42.5084 53.5885 42.3457 53.6317C42.2765 53.6501 42.2088 53.6698 42.1382 53.6833C42.1073 53.6893 42.0758 53.6926 42.0451 53.6991C42.018 53.7048 42.2664 53.6737 42.1084 53.6899C41.9342 53.7077 41.7615 53.7163 41.5993 53.7847C41.0182 54.03 40.9634 54.8541 41.5119 55.1741C41.6777 55.2708 41.8799 55.3044 42.0642 55.3454L42.4753 53.8544C37.5837 52.8251 32.7004 51.757 27.822 50.6671C22.9717 49.5835 18.1252 48.485 13.2785 47.3855C10.5446 46.7653 7.81916 46.1087 5.06625 45.5782L5.58425 46.2586C5.55116 45.0193 5.62082 43.7766 5.64636 42.5378C5.67133 41.3279 5.67357 40.1177 5.678 38.9076C5.68701 36.4572 5.7056 34.007 5.69519 31.5566C5.67436 26.6641 5.59747 21.7716 5.47931 16.8806C5.43556 15.0701 5.38613 13.2598 5.33102 11.4497C5.31668 10.9778 5.2473 10.5103 5.2333 10.0393C5.23078 9.95483 5.24652 9.86478 5.23862 9.78167C5.22837 9.67421 5.18352 9.97885 5.23649 9.81981C5.24388 9.79763 5.29781 9.6405 5.24108 9.77815C5.17792 9.93131 5.26656 9.75328 5.26656 9.75048C5.2664 9.81791 5.15232 9.88359 5.23235 9.81035L5.14471 9.87883C5.22117 9.83676 5.20463 9.83974 5.09509 9.88779C5.09907 9.87374 5.19012 9.8594 5.20048 9.8566C5.40113 9.80217 5.00426 9.85767 5.23246 9.85604C5.31484 9.85543 5.39665 9.85554 5.47897 9.86058C5.56012 9.86556 5.6407 9.87805 5.72173 9.88343C5.84527 9.8916 5.50843 9.84775 5.70056 9.88147C5.75892 9.89171 5.81755 9.90039 5.87584 9.91075C6.26432 9.97975 6.6478 10.0733 7.03247 10.1606C7.44407 10.254 7.85718 10.3089 8.27522 10.3664C13.0444 11.0231 17.8022 11.7794 22.5371 12.65C27.2912 13.5243 32.0265 14.5091 36.7205 15.6653C37.2997 15.808 37.8785 15.9524 38.4568 16.0986C39.1906 16.2841 39.5036 15.1505 38.7694 14.9649V14.965Z" fill="black"/>
<path d="M5.26378 17.701C7.61583 18.1935 9.97169 18.6714 12.329 19.1387C14.6862 19.606 17.0272 20.069 19.3755 20.5387C21.7371 21.0111 24.0969 21.4924 26.4546 21.9832C28.8018 22.4718 31.1469 22.9701 33.49 23.478C35.8459 23.9888 38.1993 24.5115 40.5526 25.0343C40.8454 25.0994 41.1382 25.1646 41.4309 25.2299C41.7926 25.3106 42.2164 25.1204 42.3044 24.734C42.3865 24.3734 42.196 23.9478 41.8085 23.8605C39.4563 23.3305 37.1005 22.817 34.7424 22.3137C32.397 21.8133 30.0495 21.3224 27.7 20.8413C25.3398 20.3577 22.9775 19.8844 20.6132 19.4215C18.2609 18.9611 15.9072 18.5094 13.5484 18.0839C11.177 17.6561 8.8004 17.2414 6.41821 16.8782C6.12149 16.8329 5.82473 16.7878 5.52793 16.7429C5.26299 16.7027 4.9938 16.8096 4.9168 17.0898C4.84904 17.3365 4.99996 17.6458 5.26378 17.701ZM16.8543 26.1478C18.3316 26.4451 19.8073 26.7506 21.2812 27.0642C22.0184 27.2213 22.7615 27.3541 23.5016 27.4972C24.2369 27.6395 24.974 27.7732 25.7103 27.9102C26.5448 28.0655 27.3796 28.2199 28.214 28.3762L27.8933 27.1613C27.0873 27.9759 26.3149 28.8209 25.5718 29.6933C24.7938 30.6066 24.0479 31.5473 23.3312 32.5094C22.6498 33.4241 21.9951 34.36 21.3789 35.3199C20.7627 36.2798 20.1728 37.2682 19.6187 38.2708C19.0644 39.2737 18.5367 40.2924 18.0684 41.3385C17.9888 41.5153 17.9115 41.693 17.8363 41.8717L17.9092 41.6989C17.8456 41.8399 17.7788 41.992 17.7374 42.1426L17.808 41.9754L17.796 42.0019C17.7159 42.1778 17.6721 42.3476 17.7254 42.5411C17.7701 42.7033 17.8956 42.8792 18.047 42.9592C18.2094 43.045 18.4061 43.088 18.5861 43.0298C18.7493 42.977 18.9302 42.871 19.0043 42.7082C19.044 42.621 19.1008 42.5402 19.1456 42.4552C19.1953 42.361 19.2394 42.2635 19.2865 42.168C19.3723 41.9942 19.4591 41.8209 19.5469 41.648C19.727 41.2932 19.903 40.9364 20.085 40.5826C20.4446 39.8833 20.8201 39.1923 21.2111 38.5101C21.9954 37.1416 22.8423 35.8081 23.7417 34.5125C24.2483 33.7829 24.7732 33.0663 25.3161 32.3634L25.1987 32.5153C26.1082 31.3387 27.0732 30.2114 28.0701 29.1085C28.3502 28.7987 28.6339 28.4923 28.9213 28.1893C29.101 27.9998 29.1786 27.7374 29.1082 27.4821C29.0464 27.2576 28.8429 27.0145 28.6005 26.9744C26.8126 26.6784 25.0263 26.3721 23.2367 26.0867C22.686 25.9989 22.1355 25.8976 21.5822 25.8281L21.7533 25.851C20.9198 25.7339 20.0867 25.6121 19.2525 25.5001L19.4015 25.5201L17.1226 25.1746C16.9834 25.1535 16.8602 25.1515 16.7338 25.2255C16.6291 25.2867 16.5293 25.4067 16.5019 25.527C16.4447 25.7782 16.5776 26.092 16.8544 26.1478H16.8543Z" fill="black"/>
<path d="M18.5881 34.5715C19.009 34.7017 19.4308 34.8287 19.8531 34.9543C20.2754 35.0799 20.6963 35.2102 21.1222 35.3209C21.9742 35.5425 22.8282 35.7579 23.6884 35.945C24.0469 36.023 24.4059 36.0991 24.7652 36.1732C24.828 36.1861 24.8908 36.2001 24.9539 36.2119C25.0083 36.2221 25.1107 36.2375 25.1814 36.2419C25.2641 36.2469 25.3469 36.224 25.4285 36.2108L25.5776 36.1479L25.7039 36.0503C25.8015 35.9527 25.8574 35.8271 25.8756 35.6918C25.909 35.4433 25.7934 35.2018 25.5776 35.0698C25.3509 34.9312 25.0705 34.9093 24.814 34.8594C24.5977 34.8174 24.3816 34.7747 24.1655 34.7312C23.7333 34.6443 23.301 34.5575 22.8688 34.4709C22.0127 34.2994 21.1579 34.1209 20.3026 33.9456C19.8164 33.8456 19.3311 33.7416 18.8467 33.6335C18.5989 33.5785 18.3087 33.7084 18.2484 33.9733C18.188 34.2382 18.3278 34.4911 18.5881 34.5717L18.5881 34.5715ZM12.9297 9.65955L12.5111 1.39999C12.5281 1.73471 20.7629 3.0642 21.6229 3.23752C26.3078 4.18151 31.146 5.12707 35.8667 6.18167C40.5534 7.22864 44.1844 7.69843 48.9089 8.5732C49.1696 8.62147 49.4507 8.68095 49.6258 8.88008C49.7678 9.04164 49.841 9.26133 49.8499 9.47626C50.4135 23.1916 49.8499 35.6088 51.5997 48.2914C48.6797 47.9417 46.382 47.214 43.462 46.8643C43.0155 36.7189 41.8288 26.5808 42.3846 16.0393C33.6923 14.4552 22.7246 10.8048 12.6283 9.66666" fill="black"/>
<path d="M49.6205 9.56091C49.6212 9.55743 49.6231 9.55498 49.6234 9.5531C49.6285 9.52613 49.63 9.5043 49.6302 9.50037C49.6308 9.49313 49.6311 9.48751 49.6312 9.48474V9.48376C49.6314 9.4979 49.6325 9.52178 49.6332 9.56091C49.6348 9.64799 49.6397 9.72044 49.6439 9.82849L49.6674 10.432C49.7826 13.5191 49.8455 16.6068 49.8949 19.6918C49.9426 22.6669 49.9827 25.6385 50.0492 28.6097C50.1148 31.539 50.2083 34.4651 50.3734 37.3861C50.5379 40.2963 50.7739 43.2007 51.1185 46.0912C51.1586 46.4275 51.2041 46.7647 51.2474 47.101C51.3795 47.1199 51.5116 47.1377 51.6439 47.1547C51.3131 44.6232 51.0915 42.0444 50.9203 39.4994C50.7233 36.5718 50.6077 33.6407 50.5306 30.7123C50.4524 27.7382 50.4138 24.7636 50.3715 21.7933C50.3279 18.7354 50.2762 15.6797 50.183 12.6263C50.1591 11.8449 50.1329 11.0636 50.1029 10.2826C50.0867 9.85833 50.0862 9.49854 50.0052 9.1781C49.9312 8.88527 49.8009 8.67754 49.5463 8.54041C49.3057 8.41092 49.0358 8.37478 48.6439 8.3031C48.275 8.23568 47.9058 8.16918 47.5365 8.10388C46.8153 7.97668 46.0936 7.85181 45.3715 7.72986C42.563 7.25407 39.7364 6.78902 36.934 6.19177C33.8798 5.54084 30.8399 4.87398 27.7855 4.25916C25.5346 3.80606 23.3115 3.31836 21.0677 2.93005C19.6234 2.68008 18.1705 2.4349 16.723 2.17126C15.9525 2.03092 15.1764 1.88932 14.4027 1.73083C14.1586 1.68082 13.9011 1.63003 13.64 1.57166C13.6461 1.70248 13.6508 1.83338 13.6566 1.96423C14.0967 2.06569 14.543 2.15604 14.9955 2.24646C16.5659 2.56021 18.1448 2.83515 19.7299 3.11072C21.364 3.39479 22.9863 3.7231 24.6039 4.04919C27.6608 4.66545 30.7208 5.28483 33.7728 5.9447C36.6584 6.56863 39.5307 7.17456 42.431 7.67126C43.8283 7.91056 45.2389 8.14303 46.64 8.38708C47.3795 8.51591 48.1342 8.64195 48.8822 8.79041C48.9479 8.80344 49.0297 8.81944 49.1127 8.84216H49.1117C49.1117 8.84215 49.119 8.84379 49.1371 8.84802C49.1521 8.85153 49.1749 8.85695 49.1908 8.86072C49.1986 8.86258 49.2088 8.86512 49.2181 8.86755C49.222 8.86856 49.2311 8.87122 49.2416 8.87439C49.2458 8.87566 49.2589 8.88003 49.2748 8.88611C49.2818 8.88881 49.3 8.89551 49.3217 8.90662C49.3324 8.91215 49.3524 8.92288 49.3754 8.93884C49.3909 8.94967 49.4353 8.98381 49.4789 9.04138C49.4827 9.04559 49.4868 9.04884 49.4896 9.05212C49.5032 9.06802 49.5133 9.0825 49.5199 9.09216C49.5267 9.10213 49.5325 9.1109 49.5365 9.11755C49.5442 9.13053 49.5496 9.1419 49.5531 9.1488C49.5568 9.15612 49.5597 9.16251 49.5619 9.16736C49.5662 9.17696 49.5701 9.18559 49.5726 9.19177L49.5658 9.19373C49.5698 9.20488 49.5746 9.21777 49.5785 9.23279M49.6205 9.56091L49.5511 9.56189M49.6205 9.56091L49.5511 9.56189M49.6205 9.56091C49.6172 9.57679 49.6111 9.6086 49.5961 9.6449C49.5872 9.66637 49.5667 9.71329 49.5258 9.76306C49.5094 9.78294 49.4823 9.80907 49.4467 9.8363L49.1771 9.84705M49.5511 9.56189C49.5546 9.55485 49.5591 9.54875 49.5619 9.54236C49.5728 9.5173 49.5796 9.4943 49.5844 9.47693C49.5866 9.46867 49.5877 9.46072 49.5892 9.45349M49.5511 9.56189C49.5478 9.56873 49.5445 9.57605 49.5404 9.58337C49.532 9.59837 49.5218 9.61506 49.5092 9.6322C49.4839 9.66635 49.4482 9.70618 49.3978 9.7406C49.3727 9.75776 49.3444 9.77276 49.3138 9.78552C49.283 9.79835 49.25 9.80789 49.2172 9.81384C49.2031 9.81639 49.1889 9.81556 49.1752 9.81677C49.1756 9.82688 49.1767 9.83695 49.1771 9.84705M49.5892 9.45349L49.6332 9.44763C49.6328 9.44477 49.6323 9.43976 49.6312 9.43005C49.6309 9.42752 49.6303 9.41828 49.6293 9.41052C49.6289 9.40804 49.6272 9.39504 49.6244 9.38025C49.6234 9.37501 49.6186 9.35222 49.6097 9.32458C49.6087 9.32117 49.6044 9.31522 49.601 9.30603C49.5991 9.29925 49.5989 9.29369 49.598 9.29041H49.5961M49.5892 9.45349L49.5795 9.45544M49.5892 9.45349V9.45251L49.5795 9.45447V9.45544M49.5961 9.29041C49.5956 9.287 49.5945 9.28377 49.5941 9.28162L49.5931 9.2738M49.5961 9.29041H49.5941M49.5961 9.29041C49.5963 9.29194 49.5968 9.29354 49.597 9.29529V9.29626C49.5963 9.2943 49.595 9.2925 49.5941 9.29041M49.5931 9.2738C49.5935 9.27535 49.5937 9.27717 49.5941 9.27869L49.5951 9.28064C49.5949 9.28008 49.5946 9.27844 49.5941 9.27673C49.5939 9.27615 49.5935 9.27492 49.5931 9.2738ZM49.5931 9.2738C49.5925 9.27044 49.5924 9.26783 49.5922 9.26697L49.5912 9.26599L49.5795 9.23474L49.5785 9.23279M49.5785 9.23279C49.5812 9.24321 49.5812 9.25489 49.5834 9.26697M49.5785 9.23279C49.5755 9.22655 49.566 9.21519 49.5551 9.19861C49.5573 9.2064 49.561 9.21386 49.5629 9.22205C49.5639 9.22376 49.5649 9.22546 49.5658 9.22693C49.5739 9.24047 49.5777 9.25501 49.5834 9.26697M49.1771 9.84705C49.1782 9.87527 49.1789 9.90378 49.1801 9.93201C49.1965 9.93144 49.2135 9.93154 49.2308 9.92908C49.3243 9.91572 49.3946 9.87519 49.4457 9.8363L49.1771 9.84705ZM49.5795 9.45544C49.5622 9.52997 49.5266 9.61407 49.4506 9.68689C49.3508 9.78241 49.239 9.80621 49.1752 9.81287C49.1747 9.80311 49.1746 9.79333 49.1742 9.78357C49.2023 9.77943 49.2394 9.77164 49.2787 9.75623C49.3114 9.74336 49.4553 9.6847 49.5326 9.51697C49.5392 9.5027 49.5433 9.48797 49.5482 9.474C49.5526 9.46825 49.557 9.46289 49.5609 9.4574L49.5795 9.45544ZM49.4681 9.56287C49.395 9.63549 49.2963 9.71041 49.1732 9.75427C49.1736 9.76208 49.1738 9.7699 49.1742 9.77771C49.2636 9.76198 49.3833 9.7153 49.473 9.59021C49.4794 9.58133 49.4841 9.57174 49.4896 9.56287M49.4681 9.56287H49.4896M49.4681 9.56287H49.4896M49.4681 9.56287C49.4863 9.54484 49.5032 9.52748 49.5179 9.51013C49.51 9.52762 49.5007 9.54509 49.4896 9.56287M49.5941 9.29041L49.5873 9.29236C49.5862 9.28348 49.5849 9.27514 49.5834 9.26697M49.5941 9.29041C49.5911 9.28321 49.5875 9.27551 49.5834 9.26697M48.8412 8.99353C48.8063 9.02178 48.779 9.0507 48.7592 9.07751C48.7341 9.1114 48.7173 9.14347 48.7064 9.16833C48.6969 9.19003 48.6929 9.21112 48.6879 9.22888C48.6846 9.22824 48.6814 9.22757 48.6781 9.22693C48.697 9.15682 48.7347 9.08051 48.8051 9.01306C48.8172 9.00142 48.8307 8.99243 48.8431 8.98279M48.8412 8.99353L48.8431 8.98279M48.8412 8.99353C48.8506 8.98589 48.8598 8.9774 48.8705 8.97009C48.9223 8.9347 48.9838 8.9081 49.0511 8.89587C49.067 8.893 49.0828 8.89316 49.098 8.89197L49.1 8.88416C49.0486 8.88719 48.9443 8.90408 48.8431 8.98279M48.8412 8.99353L48.8431 8.98279M51.7845 48.1801C51.7973 48.2689 51.7959 48.3144 51.7914 48.3412C51.7882 48.3598 51.7821 48.3802 51.7572 48.4125C51.7358 48.4402 51.7028 48.4685 51.6713 48.4857C51.6553 48.4944 51.6458 48.4958 51.6429 48.4965C51.5661 48.4876 51.4894 48.4767 51.4125 48.4672L51.7738 48.1058C51.7773 48.1304 51.781 48.1555 51.7845 48.1801ZM44.64 46.7933C45.5704 46.9478 46.4988 47.1387 47.4369 47.3353C48.4163 47.5406 49.4079 47.7485 50.4105 47.9154C50.429 48.0559 50.446 48.1958 50.4642 48.3344C49.8513 48.2395 49.2369 48.131 48.6205 48.014L46.5853 47.6195C45.9454 47.4969 45.3033 47.3791 44.6615 47.2777L44.6429 46.8431C44.6422 46.8265 44.6408 46.8099 44.64 46.7933ZM43.806 47.1537C43.7103 47.141 43.6146 47.1282 43.5189 47.1166C43.396 47.1016 43.3217 47.0599 43.2826 47.0228C43.2496 46.9914 43.2176 46.9417 43.2133 46.8441C43.2089 46.7446 43.2031 46.6448 43.1986 46.5453L43.806 47.1537ZM42.1146 17.1732L42.5619 17.2543C42.4863 19.1579 42.4639 21.0622 42.4828 22.9652C42.5227 26.9744 42.74 30.9774 42.9935 34.9672C43.2214 38.5529 43.4769 42.1256 43.6547 45.7035C43.6092 45.6977 43.5635 45.6914 43.5179 45.6859L43.1556 45.642C43.0649 43.7985 42.9548 41.9569 42.8373 40.1176C42.5836 36.1485 42.3036 32.1926 42.14 28.2299C41.9878 24.5418 41.9483 20.8517 42.101 17.1703C42.1055 17.1711 42.11 17.1724 42.1146 17.1732ZM42.4867 15.8236C42.4833 15.823 42.4912 15.8236 42.5082 15.8353C42.5256 15.8474 42.5468 15.8671 42.5668 15.8939C42.5866 15.9206 42.6011 15.949 42.6097 15.974C42.6139 15.9862 42.6164 15.9969 42.6176 16.0043C42.6181 16.0077 42.6184 16.0103 42.6185 16.0121C42.6186 16.0139 42.6185 16.015 42.6185 16.015C42.6107 16.1654 42.6032 16.3158 42.5961 16.4662L42.5697 16.431L42.056 15.7562L42.0424 15.7377C42.1906 15.7656 42.3383 15.7965 42.4867 15.8236ZM13.9183 9.56775C15.7575 9.81063 17.5893 10.1199 19.4135 10.4769C23.4288 11.2628 27.4007 12.2608 31.3842 13.2601C34.6425 14.0775 37.9229 14.9251 41.2416 15.5844L41.2191 16.015C41.2185 16.0271 41.2178 16.0391 41.2172 16.0511C39.5719 15.7315 37.9325 15.3733 36.2992 14.9857C32.4359 14.0689 28.5081 13.0337 24.6244 12.1293C22.6188 11.6622 20.6035 11.2225 18.5756 10.8402C17.5729 10.6508 16.5672 10.4772 15.559 10.3197C14.9461 10.2242 14.3958 10.1452 13.8324 10.0717C13.8926 9.94282 13.9264 9.79873 13.9213 9.64392C13.9204 9.61853 13.9192 9.59315 13.9183 9.56775ZM13.2758 14.4642L13.3226 14.4681H13.3236C13.3426 14.4698 13.3615 14.4726 13.3802 14.476L13.4095 14.4808L13.4398 14.4828C13.4437 14.483 13.4477 14.4831 13.4515 14.4838L13.4662 14.4886L13.4769 14.4916L13.4877 14.4935C13.4977 14.4959 13.5074 14.5012 13.515 14.5082L13.5433 14.5345L13.5765 14.556C13.5834 14.5605 13.5886 14.5668 13.5931 14.5736L13.6254 14.6488L13.6361 14.7347C13.6359 14.7474 13.6354 14.7552 13.6312 14.7631L13.6078 14.807L13.6029 14.8246L13.5902 14.8383L13.5629 14.8802C13.558 14.8878 13.551 14.8932 13.5433 14.8978L13.4535 14.9349C13.4181 14.9433 13.3739 14.9496 13.2758 14.9584L13.2152 14.9633C13.179 14.9621 13.1441 14.9532 13.1117 14.9369L13.0365 14.8783C13.0142 14.8533 12.9966 14.825 12.9857 14.7933L12.9711 14.684C12.9716 14.67 12.9738 14.6605 12.9789 14.6508L12.9984 14.6156L13.0101 14.5775C13.014 14.5655 13.0214 14.5548 13.0306 14.5463L13.0453 14.5316L13.059 14.517C13.0676 14.5075 13.079 14.5004 13.0912 14.4965L13.1293 14.4847L13.1644 14.4662C13.176 14.4601 13.1868 14.4569 13.2054 14.4574L13.2758 14.4642ZM12.9808 9.44958C12.9833 9.52475 12.9861 9.59999 12.9886 9.67517C12.9884 9.6688 12.9918 9.67814 12.974 9.69568C12.9658 9.70375 12.9558 9.71027 12.9467 9.71423C12.9381 9.7179 12.9321 9.71809 12.9301 9.71814C12.92 9.71814 12.9147 9.71619 12.9125 9.71521C12.9097 9.71396 12.9051 9.71198 12.8998 9.70642C12.8876 9.69372 12.8722 9.66688 12.8695 9.6283C12.8651 9.5639 12.8602 9.49932 12.8558 9.43494C12.8975 9.43983 12.9392 9.44462 12.9808 9.44958ZM49.1498 8.88513V8.88806C49.1331 8.8875 49.1158 8.8896 49.098 8.89099L49.101 8.88416L49.1498 8.88513ZM49.1683 8.85876C49.1702 8.85903 49.1715 8.85963 49.1722 8.85974C49.1714 8.85961 49.1697 8.85838 49.1664 8.85779L49.1683 8.85876ZM49.1527 8.85779H49.1547C49.1518 8.85741 49.1489 8.85715 49.1459 8.85681C49.1498 8.85714 49.1522 8.85774 49.1527 8.85779ZM12.3949 2.599C12.5238 2.64246 12.6493 2.67621 12.7533 2.70251C12.8325 4.63524 12.8905 6.56871 12.9515 8.5072C12.8975 8.50087 12.8435 8.49389 12.7894 8.48767C12.6521 6.52167 12.5128 4.56106 12.3949 2.599Z" stroke="black" stroke-width="0.933333"/>
<path d="M32.5243 19.0904L32.6176 19.082C32.7099 19.0737 32.8032 19.0672 32.8926 19.042L33.0591 18.9718C33.1386 18.9296 33.206 18.8678 33.2547 18.7922C33.2975 18.7496 33.3284 18.6966 33.3444 18.6385C33.388 18.5554 33.4081 18.4659 33.4044 18.3699L33.3795 18.1846L33.3092 18.018C33.2671 17.9386 33.2053 17.8712 33.1297 17.8224C33.0628 17.7611 32.9811 17.7181 32.8927 17.6977L32.8694 17.6911L32.8594 17.6883C32.8274 17.681 32.7948 17.6765 32.7619 17.6749C32.7296 17.6692 32.697 17.6649 32.6643 17.662L32.6176 17.6578L32.5244 17.6494C32.4252 17.6457 32.3327 17.6663 32.2468 17.7114C32.1579 17.7402 32.078 17.7916 32.0149 17.8604C31.946 17.9235 31.8947 18.0034 31.8659 18.0923C31.8208 18.1782 31.8001 18.2707 31.8039 18.3699L31.8297 18.5614C31.8628 18.6817 31.9267 18.7912 32.015 18.8793L32.1608 18.992C32.2711 19.0566 32.3966 19.0906 32.5245 19.0904H32.5243Z" fill="black"/>
</svg>
