<svg width="52" height="52" viewBox="0 0 52 52" fill="none" xmlns="http://www.w3.org/2000/svg">
<g clip-path="url(#clip0_74_4605)">
<path d="M2.00003 21C9.60003 15.4 29.1667 17.3333 38 19C42.5 20.9999 41 26 40.5 30.5C40.1 34.1 34.6667 39.3333 32 41.5C32.5 42.5 31.2 44.8 22 46C12.8 47.2 10.1667 42.5 10 40C0.800035 34.8 0.833368 25.1666 2.00003 21Z" fill="white"/>
<path d="M23.3593 16.4274C25.0571 16.2866 26.7741 16.2946 28.4724 16.4178C30.2738 16.5484 32.0728 16.7697 33.8415 17.14C35.2924 17.4437 36.7475 17.8386 38.0964 18.4611C38.7979 18.7848 39.472 19.1956 40.0319 19.7325C40.6535 20.3286 40.9948 21.053 41.2732 21.8563C42.4586 25.2762 41.9702 29.0086 40.5675 32.2814C39.8599 33.9323 38.9071 35.4593 37.7818 36.857C37.2471 37.5211 36.6696 38.1508 36.0522 38.7389C35.3449 39.4125 34.5754 39.9961 33.7957 40.5819C33.7633 40.6062 33.731 40.6306 33.6989 40.6552C33.8153 40.5657 33.6575 40.6895 33.646 40.6988C33.568 40.7621 33.4912 40.8271 33.4166 40.8943C33.3277 40.9738 33.2425 41.0572 33.1612 41.1443C33.1076 41.2017 33.0562 41.2612 33.0071 41.3225C33.0535 41.2623 33.0538 41.2634 33.0081 41.3258C32.9559 41.4089 32.9016 41.4885 32.8559 41.5757C32.8461 41.5945 32.7727 41.7705 32.8262 41.6288C32.8095 41.6731 32.7937 41.7175 32.7793 41.7626C32.6927 42.0338 32.6554 42.3172 32.5933 42.5943C32.378 43.5547 31.737 44.2797 30.8887 44.7509C30.0405 45.2222 29.0705 45.4733 28.1351 45.7157C27.0801 45.9891 26.0115 46.2104 24.9337 46.3725C23.8089 46.5416 22.6763 46.6569 21.5392 46.6961C20.4358 46.7341 19.3363 46.6869 18.2355 46.6117C17.1089 46.5349 15.9811 46.4234 14.8711 46.2119C13.8915 46.0254 12.8768 45.7748 11.9816 45.3237C11.5698 45.1162 11.172 44.8366 10.8816 44.4753C10.5621 44.0776 10.3868 43.6083 10.2955 43.11C10.2174 42.6836 10.1827 42.2468 10.047 41.8328C10.0293 41.779 10.0091 41.7265 9.98888 41.6737C10.048 41.8283 9.98525 41.6699 9.97245 41.6435C9.93565 41.5674 9.89571 41.4928 9.85275 41.42C9.81014 41.3478 9.76478 41.2773 9.71677 41.2086C9.70034 41.1851 9.59696 41.0509 9.70044 41.1813C9.66408 41.1354 9.62676 41.0903 9.58849 41.046C9.47268 40.9121 9.34794 40.7861 9.21731 40.6668C9.1543 40.6093 9.09002 40.5532 9.02455 40.4985C8.98497 40.4654 8.94462 40.4334 8.90474 40.4007C8.84709 40.3555 8.85062 40.3579 8.91535 40.4082C8.88775 40.3872 8.86004 40.3663 8.8322 40.3457C8.52191 40.115 8.19718 39.9047 7.87233 39.6953C7.19493 39.2587 6.51783 38.8168 5.94588 38.2438C4.48546 36.7807 3.24418 35.073 2.38092 33.1912C1.48954 31.2482 0.97588 29.1767 0.76606 27.0524C0.666324 26.0428 0.648231 25.0314 0.676051 24.0179C0.701115 23.103 0.68827 22.1486 0.984826 21.2712C1.6419 19.3271 3.63319 18.5993 5.39942 17.9617C5.87428 17.7903 6.37239 17.6837 6.86644 17.5846C7.5348 17.4504 8.2082 17.3415 8.88243 17.2418C10.3465 17.0253 11.8164 16.8503 13.2906 16.7202C13.5538 16.6969 13.8176 16.6814 14.0817 16.6739C14.1981 16.6705 14.3145 16.6677 14.4309 16.6655C14.478 16.6646 14.5257 16.6621 14.5727 16.6632L14.5997 16.6628C14.7914 16.6904 14.809 16.6915 14.6523 16.6663C14.6652 16.673 14.7127 16.6626 14.7278 16.6617C15.0332 16.6436 15.3251 16.9431 15.3116 17.2454C15.2967 17.5772 15.0549 17.8098 14.7278 17.8292C14.703 17.8306 14.6769 17.8303 14.6523 17.8338C14.8852 17.8005 14.6727 17.8347 14.5862 17.8455C14.5345 17.852 14.4826 17.858 14.4309 17.8644C14.38 17.8708 14.3291 17.8773 14.2783 17.8838C14.2279 17.8903 13.9903 17.9268 14.2122 17.8923C13.8926 17.942 13.5711 17.9753 13.2494 18.0083C12.5874 18.0763 11.9267 18.155 11.2659 18.2336C10.914 18.2755 10.5624 18.3195 10.2111 18.3657L10.0594 18.3858C10.2343 18.3627 10.0615 18.3855 10.0312 18.3897C9.9472 18.4011 9.86322 18.4127 9.77922 18.4244C9.59611 18.45 9.41311 18.4763 9.23021 18.5034C8.56975 18.6012 7.91014 18.7081 7.25525 18.8386C6.76822 18.9356 6.27593 19.0386 5.80642 19.203C5.4254 19.3366 5.04724 19.4782 4.6722 19.6278C4.615 19.6505 4.55801 19.6739 4.50102 19.6972C4.48276 19.7047 4.38583 19.7468 4.48702 19.703C4.39275 19.7438 4.29884 19.7855 4.20571 19.829C3.98351 19.9327 3.76516 20.0452 3.55451 20.171C3.46747 20.2228 3.38186 20.2771 3.29779 20.3336C3.25594 20.3619 3.21455 20.3907 3.17361 20.4202C3.15016 20.4371 3.04553 20.5173 3.13742 20.445C2.96379 20.5817 2.79989 20.7328 2.65319 20.8981C2.64482 20.9075 2.52267 21.0626 2.60473 20.9519C2.5125 21.0777 2.4307 21.2108 2.36017 21.3499C2.34275 21.3843 2.32658 21.4192 2.30994 21.454C2.22892 21.6233 2.34873 21.3334 2.28737 21.5107C2.24941 21.6204 2.21182 21.7294 2.1814 21.8415C2.13028 22.0302 2.0943 22.2221 2.06497 22.4152C2.08816 22.2624 2.06081 22.4572 2.05873 22.476C2.05342 22.5253 2.04857 22.5746 2.04417 22.624C2.03356 22.7429 2.0255 22.862 2.01911 22.9812C1.99612 23.4113 1.99108 23.8425 1.98011 24.273C1.95473 25.2697 1.9917 26.2684 2.09991 27.2597C2.11379 27.3862 2.12878 27.5126 2.1449 27.6389C2.16143 27.7691 2.12233 27.4842 2.15368 27.7052C2.19848 28.0257 2.25122 28.345 2.31187 28.6629C2.40467 29.1506 2.51699 29.6343 2.64857 30.1129C3.17647 32.03 3.99485 33.7378 5.19599 35.3731C5.44903 35.7176 5.72858 36.0642 6.05764 36.4391C6.37213 36.7975 6.69796 37.1506 7.04444 37.4784C7.17241 37.5995 7.30922 37.7082 7.44426 37.821C7.52367 37.8874 7.31816 37.7291 7.45279 37.8267C7.49439 37.8569 7.53537 37.8879 7.57707 37.918C7.66124 37.9787 7.74621 38.0382 7.83198 38.0966C8.13701 38.3046 8.44984 38.5009 8.75929 38.7021C9.4199 39.132 10.1006 39.5922 10.6027 40.2085C10.8833 40.553 11.1003 40.9089 11.2649 41.3219C11.4257 41.7256 11.4755 42.1569 11.5456 42.5825C11.5773 42.775 11.6132 42.9672 11.6677 43.1546C11.6838 43.2101 11.7028 43.2643 11.7211 43.319C11.761 43.438 11.7306 43.3444 11.719 43.3197C11.7683 43.425 11.8245 43.5261 11.8918 43.621C11.8112 43.5074 11.9253 43.6547 11.9384 43.6686C11.9776 43.7103 12.0184 43.7505 12.0608 43.7891C12.0891 43.815 12.1185 43.8396 12.1475 43.8648C12.2884 43.9867 12.0404 43.7983 12.1971 43.9012C12.3795 44.0211 12.5654 44.1305 12.7634 44.223C12.7772 44.2295 12.9595 44.3087 12.8242 44.2523C12.8613 44.2678 12.8987 44.2825 12.9361 44.2972C13.0294 44.3335 13.1234 44.3679 13.2181 44.4004C13.4385 44.4762 13.662 44.5425 13.8862 44.6058C14.3762 44.7439 14.8724 44.8585 15.3733 44.9491C16.3803 45.1318 17.4092 45.22 18.4959 45.2889C19.5723 45.3572 20.6465 45.3924 21.7247 45.3471C23.8557 45.2576 25.8307 44.9337 27.9208 44.3803C28.3936 44.2552 28.8673 44.1259 29.33 43.9666C29.4196 43.9359 29.5087 43.9037 29.5972 43.87C29.6415 43.8531 29.6852 43.8344 29.7297 43.818C29.8352 43.7793 29.5855 43.8841 29.752 43.809C29.9402 43.7242 30.1256 43.6345 30.3035 43.5292C30.3905 43.4777 30.4755 43.4229 30.5583 43.3648C30.5881 43.3438 30.6866 43.2669 30.5742 43.3567C30.6165 43.3231 30.6579 43.2885 30.6984 43.2528C30.7652 43.1939 30.8291 43.1316 30.8898 43.0663C30.9199 43.0338 30.9472 42.9986 30.9774 42.9664C31.0083 42.9287 31.0004 42.9395 30.9537 42.999C30.9748 42.9705 30.9952 42.9415 31.0149 42.9121C31.0646 42.8378 31.1096 42.7606 31.1498 42.6808C31.1637 42.6532 31.2206 42.4911 31.1694 42.6428C31.1845 42.5979 31.2012 42.5539 31.2153 42.5087C31.2964 42.2482 31.3336 41.9768 31.3912 41.7108C31.6174 40.6663 32.3341 39.9857 33.1572 39.3701C33.8374 38.8614 34.4751 38.3602 35.1273 37.7328C35.728 37.1549 36.2904 36.5373 36.8119 35.8871C36.8731 35.8107 36.9338 35.7338 36.994 35.6566C36.8987 35.7789 37.0186 35.6239 37.0301 35.6088C37.1964 35.3896 37.3582 35.1669 37.5152 34.9409C37.7516 34.6011 37.9775 34.254 38.1925 33.9002C38.6431 33.158 39.0382 32.386 39.3854 31.5904C39.396 31.5661 39.4359 31.4691 39.3854 31.591C39.4079 31.5366 39.4306 31.4822 39.4527 31.4276C39.5708 31.1369 39.6809 30.8431 39.7829 30.5465C39.9226 30.1406 40.0461 29.7294 40.1531 29.3137C40.2571 28.9098 40.3444 28.5019 40.4147 28.0909C40.4326 27.9861 40.4493 27.8811 40.4649 27.776C40.4706 27.7378 40.4759 27.6996 40.4815 27.6613C40.4569 27.83 40.4843 27.6377 40.4874 27.6128C40.5133 27.4024 40.5345 27.1915 40.5508 26.9802C40.6143 26.156 40.6023 25.3258 40.5064 24.5046C40.4997 24.4472 40.4926 24.3898 40.485 24.3326C40.5046 24.4807 40.4866 24.3494 40.4811 24.3122C40.4655 24.2072 40.4485 24.1024 40.4301 23.9977C40.3932 23.7878 40.3505 23.5789 40.3023 23.3713C40.1599 22.758 39.9677 22.1574 39.7278 21.5753C39.7926 21.732 39.6914 21.5032 39.6756 21.4723C39.6335 21.3904 39.5877 21.3104 39.5384 21.2326C39.4971 21.1673 39.4522 21.105 39.408 21.0418C39.3162 20.9105 39.5047 21.1528 39.3993 21.0314C39.3737 21.0019 39.3493 20.9714 39.3236 20.9421C39.2034 20.805 39.0745 20.6758 38.9375 20.5554C38.8769 20.5018 38.8142 20.4509 38.7519 20.3993C38.6286 20.2972 38.8377 20.4553 38.7525 20.3996C38.7182 20.3772 38.6862 20.3504 38.6529 20.3266C38.5032 20.2198 38.3492 20.119 38.1914 20.0247C37.868 19.8306 37.53 19.6614 37.1849 19.5094C37.1806 19.5075 37.0245 19.439 37.1219 19.4815C37.2194 19.524 37.0626 19.4571 37.0582 19.4552C36.9784 19.4226 36.8982 19.3907 36.8178 19.3597C36.6347 19.2891 36.4502 19.2222 36.2644 19.1589C35.9324 19.0455 35.5969 18.9426 35.2594 18.8468C33.7875 18.4287 32.2872 18.139 30.7725 17.9271C30.7321 17.9214 30.6918 17.9158 30.6514 17.9103L30.5907 17.902C30.6973 17.9166 30.6567 17.9112 30.469 17.8858C30.3675 17.8711 30.2659 17.8565 30.1644 17.8422C29.9682 17.8147 30.2372 17.8515 30.1189 17.836C30.0675 17.8291 30.016 17.8224 29.9646 17.8157C29.8408 17.7996 29.7169 17.784 29.5929 17.7688C29.1371 17.713 28.6804 17.6634 28.2232 17.6198C28.0167 17.6002 27.8101 17.581 27.6033 17.5647C27.5083 17.5572 27.4153 17.5431 27.3203 17.5344C27.414 17.543 27.3093 17.5364 27.2954 17.5357C27.1731 17.529 27.0506 17.5133 26.9285 17.5028C26.4919 17.4653 26.0547 17.4345 25.6171 17.4106C24.8647 17.3699 24.1126 17.3485 23.3591 17.3728C23.1037 17.3811 22.8863 17.1496 22.8863 16.9001C22.8863 16.6267 23.1036 16.4484 23.3591 16.4273L23.3593 16.4274Z" fill="black"/>
<path d="M21.015 24.977C12.9228 24.977 6.36274 23.9877 6.36274 22.7673C6.36274 21.5469 12.9228 20.5576 21.015 20.5576C29.1072 20.5576 35.6672 21.5469 35.6672 22.7673C35.6672 23.9877 29.1072 24.977 21.015 24.977Z" fill="black"/>
<path d="M7.10394 22.7673C7.10571 22.9063 7.05012 22.5221 7.09094 22.6659C7.11283 22.743 7.16639 22.7412 7.03483 22.5405C7.04435 22.5551 7.04903 22.573 7.05875 22.5877C7.06702 22.6001 7.07576 22.613 7.08314 22.626C7.1354 22.7177 6.93208 22.4517 7.00649 22.5269C7.03712 22.5578 7.06525 22.5901 7.09806 22.6191C7.23784 22.7426 6.93348 22.5062 7.05298 22.586C7.0989 22.6167 7.14414 22.6476 7.19172 22.6757C7.2926 22.7354 7.3979 22.7874 7.50481 22.8352C7.56757 22.8632 7.70833 22.9143 7.43663 22.8073C7.46867 22.8199 7.50039 22.8334 7.53247 22.8459C7.60052 22.8726 7.66902 22.898 7.73798 22.9222C7.8915 22.9759 8.0465 23.0253 8.2028 23.0703C8.58157 23.1802 8.96595 23.2703 9.352 23.3504C9.81782 23.4471 10.2867 23.5285 10.7569 23.6007C10.9367 23.6284 11.1168 23.6546 11.2971 23.6795C11.3368 23.6851 11.3766 23.6902 11.4162 23.6959C11.1736 23.661 11.3299 23.6843 11.38 23.6909C11.6579 23.7274 11.9362 23.7615 12.2148 23.793C13.4935 23.9381 14.7774 24.0368 16.0624 24.1064C19.0282 24.2669 22.0048 24.2794 24.9723 24.1543C26.3091 24.0979 27.6451 24.0117 28.9769 23.8814C29.5491 23.8256 30.1203 23.7603 30.6904 23.6855C30.8374 23.6662 30.5327 23.7071 30.6337 23.6931L30.733 23.6795C30.9258 23.6528 31.1184 23.6246 31.3107 23.5949C31.5516 23.5577 31.792 23.5177 32.0319 23.4749C32.8009 23.3371 33.5759 23.177 34.3135 22.9146C34.3818 22.8903 34.4497 22.8649 34.5171 22.8382C34.5533 22.8238 34.6727 22.7738 34.5234 22.8368C34.3719 22.9009 34.5053 22.8442 34.5427 22.8273C34.6484 22.7795 34.7524 22.7274 34.8519 22.6677C34.8947 22.6419 34.9356 22.6138 34.977 22.586C35.0878 22.5119 34.8339 22.7048 34.8924 22.6524C34.9083 22.6381 34.9254 22.6251 34.9413 22.6108C34.9706 22.5844 34.9955 22.5543 35.0235 22.5269C35.0941 22.4579 34.9018 22.7103 34.9469 22.6261C34.9553 22.6103 34.9663 22.5942 34.9761 22.5792C35.0577 22.4535 34.902 22.7964 34.9391 22.6659C34.9806 22.5197 34.9279 22.9093 34.926 22.7586C34.9245 22.6421 34.9861 23.0131 34.9391 22.8687C34.9031 22.7583 34.9903 22.9905 34.9952 22.994C34.985 22.9867 34.9764 22.9541 34.9688 22.9426C34.9595 22.9287 34.9492 22.9144 34.9408 22.9C34.8999 22.8294 35.1001 23.0854 35.0198 23.0034C34.9907 22.9736 34.9632 22.9431 34.9319 22.9154C34.9157 22.9011 34.8979 22.8884 34.882 22.8739C35.0863 23.059 35.0278 22.9825 34.9653 22.9403C34.9238 22.9119 34.8814 22.8847 34.8382 22.8588C34.7373 22.7991 34.6321 22.7471 34.5251 22.6993C34.4624 22.6714 34.3222 22.6206 34.5933 22.7272C34.5612 22.7146 34.5295 22.7012 34.4974 22.6886C34.4259 22.6605 34.3537 22.634 34.2812 22.6086C33.9483 22.492 33.6075 22.3985 33.2649 22.3155C32.8454 22.2139 32.422 22.129 31.9971 22.0534C31.7562 22.0107 31.5148 21.9708 31.273 21.9338C31.08 21.9042 30.8867 21.8761 30.6932 21.8495L30.6136 21.8386C30.8596 21.8729 30.6851 21.8483 30.6296 21.841C29.4178 21.6819 28.1997 21.5717 26.9804 21.4896C24.0386 21.2914 21.0838 21.2528 18.1371 21.3413C16.7499 21.383 15.3634 21.4551 13.9802 21.5695C13.3765 21.6195 12.7734 21.6775 12.1716 21.7464C11.8939 21.7783 11.6165 21.8125 11.3394 21.8489C11.1863 21.869 11.5283 21.8231 11.3762 21.8441L11.2968 21.855C11.2315 21.864 11.1661 21.8732 11.1008 21.8826C10.9672 21.9018 10.8338 21.9218 10.7004 21.9425C9.85219 22.0742 9.0022 22.2299 8.17763 22.4715C8.02249 22.5165 7.86866 22.566 7.71634 22.6199C7.64798 22.6442 7.58009 22.6696 7.51266 22.6963C7.49664 22.7026 7.48068 22.7093 7.46466 22.7156C7.40907 22.7374 7.3304 22.7772 7.57636 22.668C7.54376 22.6825 7.51089 22.6963 7.47844 22.7111C7.37101 22.76 7.26529 22.8134 7.16447 22.875C7.1263 22.8982 7.08985 22.9236 7.05277 22.9485C6.94066 23.0236 7.17294 22.8483 7.13737 22.8821C7.11897 22.8997 7.09801 22.9147 7.07934 22.932C7.0521 22.9573 7.02854 22.9853 7.00275 23.0119C6.93525 23.0814 7.1341 22.8191 7.08293 22.9085C7.07471 22.9228 7.06509 22.9372 7.0561 22.9511C7.04741 22.9646 7.0431 22.9806 7.03462 22.994C7.17133 22.7776 7.11002 22.7935 7.09073 22.8687C7.05324 23.0149 7.1054 22.638 7.10373 22.7673C7.09874 23.1547 6.76646 23.5264 6.36268 23.5083C5.96545 23.4905 5.61632 23.1826 5.62163 22.7673C5.62964 22.1444 6.13596 21.7171 6.65456 21.4668C7.32801 21.1418 8.05814 20.9489 8.78614 20.7912C9.84658 20.5616 10.9243 20.4109 12.0012 20.2839C13.2993 20.1309 14.6031 20.0276 15.908 19.9544C18.9601 19.7831 22.0245 19.77 25.0784 19.9026C27.5907 20.0116 30.1217 20.2014 32.597 20.6616C33.3577 20.8031 34.1276 20.9662 34.8519 21.244C35.3707 21.443 36.0049 21.7087 36.2712 22.2373C36.445 22.5826 36.4508 22.9674 36.2649 23.3101C36.1277 23.5631 35.9021 23.7519 35.665 23.9068C35.1228 24.2613 34.449 24.4482 33.8272 24.6065C32.901 24.8423 31.9541 24.9966 31.0078 25.1251C29.7195 25.3002 28.4261 25.4271 27.1292 25.517C24.102 25.7268 21.0605 25.7669 18.0279 25.6721C15.3917 25.5897 12.7459 25.4131 10.1395 24.9949C9.28991 24.8586 8.4367 24.6981 7.61427 24.441C7.05449 24.2661 6.4048 24.0471 5.9887 23.6087C5.76879 23.377 5.62579 23.0914 5.62163 22.7673C5.61664 22.3795 5.96602 22.0085 6.36268 22.0263C6.76843 22.0445 7.09843 22.3518 7.10373 22.7673L7.10394 22.7673ZM22.4346 17.6019C22.4606 17.4789 22.4823 17.355 22.4995 17.2305L22.4825 17.3572C22.5492 16.8604 22.537 16.3626 22.471 15.8665L22.4906 16.0123C22.4143 15.4551 22.25 14.9224 22.033 14.4047L22.094 14.5494C21.8928 14.0739 21.6315 13.626 21.3165 13.2168L21.4146 13.3438C21.1217 12.9666 20.784 12.6261 20.406 12.3339L20.5371 12.4352C20.1431 12.1333 19.7152 11.8885 19.2586 11.6947L19.4144 11.7605C18.8947 11.5418 18.3615 11.349 17.8591 11.0916C17.3932 10.8529 16.9596 10.5231 16.6261 10.1178C16.2832 9.70112 16.021 9.23598 15.8619 8.71852C15.6971 8.1823 15.6555 7.62564 15.688 7.06768C15.7237 6.45491 15.7952 5.84552 15.7145 5.23296L15.7313 5.35802C15.6744 4.94306 15.5623 4.5384 15.4009 4.15199L15.4483 4.26436C15.3539 4.04175 15.2505 3.82335 15.129 3.61415C15.0381 3.45779 14.9387 3.30653 14.8312 3.16108C14.8145 3.13851 14.7969 3.11656 14.7805 3.09379C14.8649 3.21089 14.7956 3.11407 14.7756 3.08921C14.6242 2.9017 14.4591 2.72407 14.2798 2.56297C14.2021 2.49321 14.1221 2.42613 14.0399 2.36184C14.0946 2.40385 14.1043 2.41139 14.0689 2.38446C13.9504 2.2958 13.8352 2.20344 13.7183 2.11281C13.6453 2.05628 13.5956 1.91484 13.5996 1.82624C13.6037 1.73472 13.6303 1.65354 13.6866 1.58069C13.8142 1.41544 14.0264 1.38439 14.2094 1.47633C14.4236 1.58392 14.6105 1.72546 14.7965 1.87631C14.959 2.00793 15.1131 2.14963 15.2579 2.30058C15.5668 2.6235 15.8393 2.98901 16.0579 3.3788C16.5151 4.1938 16.721 5.13021 16.6923 6.06117C16.6736 6.66936 16.5976 7.2774 16.6783 7.88455L16.6608 7.75403C16.6971 8.0095 16.7616 8.25567 16.8606 8.49404L16.8092 8.37215C16.9246 8.64393 17.0738 8.90006 17.2534 9.13447L17.1677 9.02361C17.3433 9.25057 17.5462 9.45491 17.772 9.63196L17.654 9.54075C17.9419 9.76248 18.265 9.9282 18.5983 10.0704L18.4494 10.0076C18.7959 10.1537 19.1553 10.2635 19.5053 10.4001C19.8707 10.5427 20.2355 10.6941 20.5757 10.8905C21.1288 11.2098 21.6303 11.6396 22.0428 12.1266C22.4595 12.6186 22.8102 13.1603 23.0646 13.7535C23.2023 14.0746 23.3201 14.3965 23.401 14.7368C23.4797 15.0678 23.5308 15.4071 23.559 15.7461C23.6174 16.447 23.5301 17.1754 23.3187 17.8456C23.2467 18.0739 22.9965 18.2439 22.7549 18.1657C22.5069 18.0854 22.3815 17.8536 22.4348 17.6019L22.4346 17.6019ZM14.8404 17.34C14.8432 17.2294 14.8332 17.1197 14.8324 17.0095C14.8316 16.8992 14.8233 16.789 14.8091 16.6796L14.8274 16.8155C14.7861 16.5131 14.7005 16.2109 14.5833 15.9293L14.6386 16.0605C14.5031 15.7399 14.3191 15.4408 14.1074 15.165L14.1958 15.2794C13.9751 14.9949 13.7191 14.742 13.4346 14.5216L13.5494 14.6103C13.1209 14.2813 12.6442 14.0243 12.1477 13.8139L12.284 13.8714C11.9924 13.7486 11.6938 13.6416 11.3966 13.5335C11.2491 13.4798 11.1002 13.4303 10.952 13.3787C10.7683 13.3148 10.5905 13.2234 10.4118 13.1463C10.3118 13.1032 10.2112 12.9576 10.1879 12.8551C10.163 12.7461 10.1688 12.6412 10.2124 12.5378C10.2519 12.4442 10.3194 12.3536 10.4118 12.3048L10.5281 12.2557C10.6129 12.2325 10.7024 12.2325 10.7872 12.2557C10.9133 12.2735 11.0393 12.2919 11.1652 12.3112C11.2898 12.3303 11.4126 12.3705 11.5339 12.4043C11.7749 12.4714 12.0124 12.5444 12.2462 12.6337C12.7508 12.8264 13.2482 13.0487 13.7053 13.3384C14.1389 13.6133 14.5476 13.9415 14.8787 14.3355C15.0527 14.5424 15.2182 14.7609 15.3505 14.9972C15.4815 15.2318 15.5903 15.4781 15.6755 15.7329C15.8579 16.2771 15.9033 16.9111 15.7075 17.4575C15.6328 17.6662 15.4508 17.8043 15.2232 17.7737C15.0124 17.7454 14.8349 17.561 14.8404 17.3401L14.8404 17.34ZM41.4279 21.7146C41.9012 21.4269 42.3937 21.1671 42.8954 20.932C43.4319 20.6807 43.9976 20.4667 44.5768 20.3377C45.1281 20.2148 45.7122 20.1692 46.2741 20.2387C46.5479 20.2726 46.8181 20.3154 47.084 20.3896C47.3478 20.4631 47.6009 20.5642 47.8516 20.6738C48.3111 20.8746 48.7228 21.1498 49.1143 21.461C49.5096 21.7752 49.8416 22.1489 50.1469 22.5491C50.4204 22.9075 50.6486 23.2984 50.826 23.7129C51.019 24.1645 51.1736 24.6239 51.2597 25.1083C51.3449 25.5868 51.3893 26.0731 51.3743 26.5592C51.3594 27.0453 51.2944 27.5364 51.1894 28.0124C51.0946 28.4425 50.9609 28.8639 50.7938 29.2714C50.6048 29.7321 50.391 30.1791 50.131 30.6042C49.641 31.4053 49.0246 32.1442 48.3062 32.7503C47.5183 33.4151 46.6309 33.9759 45.6919 34.4013C44.7698 34.819 43.8073 35.1243 42.8082 35.2916C41.7794 35.4638 40.7381 35.521 39.6964 35.4748C39.4453 35.4637 39.1945 35.4468 38.9441 35.4255C38.7621 35.41 38.5994 35.3606 38.4665 35.2277C38.3493 35.1106 38.2611 34.9184 38.2687 34.7501C38.2765 34.5754 38.3339 34.3943 38.4665 34.2725C38.5921 34.1572 38.7675 34.0596 38.9441 34.0747C39.8059 34.148 40.6735 34.1649 41.5362 34.0972C41.771 34.0788 42.0054 34.054 42.2389 34.0228L42.0593 34.0469C42.821 33.944 43.5728 33.77 44.2984 33.5155C44.5043 33.4431 44.708 33.3645 44.9092 33.2799L44.7477 33.3481C45.6292 32.9756 46.4617 32.4862 47.2202 31.9028L47.0833 32.0085C47.6332 31.5832 48.1248 31.0861 48.5501 30.5364L48.4442 30.6733C48.8813 30.1056 49.2462 29.4842 49.5255 28.8242L49.4573 28.9859C49.7154 28.3719 49.898 27.7271 49.9873 27.0667L49.9632 27.2467C50.0382 26.6808 50.0436 26.107 49.9685 25.5407L49.9927 25.7208C49.9242 25.2167 49.792 24.7233 49.5956 24.2538L49.6639 24.4157C49.4802 23.9815 49.2396 23.5738 48.9516 23.2007L49.0575 23.3379C48.7678 22.9656 48.4326 22.6327 48.0601 22.3435L48.1971 22.4493C47.8539 22.185 47.4802 21.9626 47.0814 21.7929L47.2417 21.8606C46.8753 21.7066 46.4914 21.5988 46.0974 21.5454L46.2742 21.5691C45.8735 21.5167 45.4684 21.5233 45.068 21.5753L45.2433 21.5518C44.4029 21.665 43.6087 21.9396 42.83 22.2679L42.9711 22.2083C42.5933 22.3682 42.221 22.5399 41.8425 22.6979C41.7279 22.7457 41.5289 22.7087 41.428 22.6437C41.3282 22.5792 41.2544 22.4964 41.2079 22.3864C41.1037 22.1394 41.1972 21.855 41.428 21.7147L41.4279 21.7146Z" fill="black"/>
<path d="M41.6062 25.1047C41.7622 25.0142 41.916 24.9235 42.0674 24.8256C42.2143 24.7306 42.3741 24.6555 42.5315 24.5792C42.8889 24.4059 43.2561 24.2478 43.6323 24.1197C44.0012 23.994 44.3866 23.9235 44.7729 23.878C45.1191 23.8371 45.4589 23.8422 45.8025 23.9043C46.0773 23.954 46.353 24.0584 46.5905 24.205C46.8548 24.3681 47.0648 24.5741 47.2517 24.8188C47.5852 25.2557 47.7368 25.8258 47.7396 26.3701C47.7428 26.9851 47.5498 27.5822 47.3039 28.1388C47.0863 28.6314 46.7879 29.0825 46.4352 29.4889C45.7336 30.297 44.8034 30.8558 43.8232 31.2596C42.8622 31.6555 41.8414 31.8683 40.8119 31.9873C40.6944 32.0008 40.5772 32.003 40.4597 32.0131C40.3236 32.0248 40.1558 31.9419 40.0623 31.8484C39.9648 31.7509 39.8914 31.591 39.8977 31.451C39.9042 31.3056 39.9519 31.1548 40.0623 31.0536C40.1774 30.9478 40.3039 30.9023 40.4597 30.8889L40.4757 30.8876L40.3263 30.9076C40.596 30.8508 40.8783 30.8407 41.1517 30.8042L41.0003 30.8245C41.7164 30.7278 42.4274 30.5747 43.112 30.3416C43.3071 30.2752 43.4998 30.2019 43.6898 30.1219L43.5573 30.1778C44.0938 29.9504 44.6065 29.6659 45.0683 29.3094L44.9583 29.3944C45.3074 29.1234 45.6241 28.8128 45.8946 28.463L45.8109 28.5714C46.0514 28.2581 46.252 27.9179 46.4065 27.5543L46.3529 27.6813C46.4961 27.3411 46.6123 26.9806 46.6633 26.6143L46.6443 26.7563C46.6748 26.527 46.6776 26.2952 46.647 26.0657L46.6661 26.2082C46.6399 26.0207 46.5916 25.8376 46.5185 25.6629L46.5727 25.7912C46.5096 25.6427 46.4283 25.5027 46.3307 25.3743L46.4149 25.4833C46.323 25.3647 46.2168 25.258 46.0987 25.1655L46.2079 25.2499C46.0812 25.153 45.9428 25.0722 45.7961 25.0096L45.9249 25.064C45.7559 24.9929 45.5787 24.9466 45.3972 24.9213L45.5399 24.9405C45.2465 24.9021 44.9479 24.9197 44.6554 24.958L44.7969 24.939C44.1174 25.0313 43.4528 25.2519 42.8227 25.5172L42.9397 25.4678C42.8364 25.5115 42.7341 25.5573 42.6316 25.6028C42.5014 25.6606 42.3652 25.705 42.232 25.7551L42.3382 25.7103C42.2383 25.7542 42.1403 25.803 42.042 25.8505C41.9361 25.9018 41.826 25.9262 41.7093 25.8941C41.6091 25.8665 41.5005 25.789 41.4512 25.6956C41.3421 25.4892 41.3974 25.226 41.6061 25.1049L41.6062 25.1047ZM8.68998 12.6727C7.58389 12.4509 6.56157 11.9301 5.69967 11.2076C5.26682 10.8448 4.89039 10.425 4.56243 9.96568C4.1886 9.44214 3.91102 8.86401 3.66636 8.27121C3.40517 7.63826 3.18396 6.98961 2.91793 6.35865L2.97887 6.50305C2.71882 5.88919 2.41254 5.28568 2.00429 4.75606L2.09789 4.87722C2.04183 4.80515 1.9863 4.73271 1.93055 4.66038L2.02374 4.78102C1.78818 4.47791 1.51793 4.19066 1.21503 3.95411L1.32335 4.03783C1.2455 3.97777 1.16522 3.92135 1.09346 3.85391C1.05077 3.81392 1.00706 3.77505 0.962364 3.73733L0.887693 3.64066C0.853326 3.58757 0.833757 3.52626 0.831012 3.46308C0.817336 3.36126 0.830337 3.24749 0.887693 3.15851C1.00173 2.98161 1.21768 2.87849 1.42709 2.93902C1.55111 2.97485 1.67944 3.01411 1.79369 3.07433C1.87304 3.11619 1.95 3.16335 2.02519 3.21213C2.21255 3.3336 2.39595 3.46901 2.55928 3.62131C2.86036 3.90211 3.11584 4.22836 3.34142 4.57203C3.7972 5.26644 4.09937 6.04467 4.38641 6.82015C4.55364 7.27187 4.71593 7.72562 4.90251 8.16986L4.8426 8.02795C4.88966 8.13939 4.93719 8.25061 4.9841 8.3621L4.9244 8.22071C5.16584 8.79058 5.46042 9.32946 5.8382 9.8207L5.75188 9.70895C6.08426 10.1383 6.47036 10.5223 6.899 10.8554L6.79619 10.7759C7.241 11.1192 7.72923 11.4071 8.24668 11.6264L8.13795 11.5805C8.39145 11.6871 8.65166 11.7769 8.91691 11.8494C9.13235 11.9081 9.286 12.1556 9.21513 12.3746C9.13973 12.6076 8.92497 12.72 8.68988 12.6728L8.68998 12.6727ZM13.1501 10.1517C12.2786 9.88856 11.6171 9.23565 11.1536 8.47234C10.6901 7.70903 10.4306 6.85301 10.1583 6.01165C9.99903 5.51952 9.86367 5.02287 9.66243 4.54504L9.72078 4.68326C9.68739 4.60547 9.6552 4.52721 9.62239 4.44921L9.68074 4.58747C9.52224 4.21417 9.32854 3.85635 9.08045 3.53458L9.17072 3.65142C8.96168 3.38341 8.71608 3.14437 8.4475 2.93637L8.56248 3.02519C8.16743 2.72229 7.72653 2.48787 7.26903 2.29443L7.39929 2.34939C7.20294 2.26733 7.00468 2.18993 6.80467 2.11727C6.57009 2.03152 6.32658 1.96153 6.10631 1.84271C5.87886 1.72004 5.79753 1.42385 5.8941 1.19505C5.93616 1.09541 6.00798 0.999006 6.10631 0.947058L6.23022 0.894798C6.32048 0.87011 6.41572 0.87011 6.50598 0.894798C6.65335 0.918302 6.79089 0.96973 6.93186 1.01799C7.06596 1.06374 7.19952 1.11106 7.33252 1.15995C7.64208 1.27432 7.94711 1.40058 8.24694 1.53845C8.79211 1.78883 9.32386 2.11747 9.74199 2.55199C10.5956 3.439 10.9854 4.65601 11.2519 5.831C11.3861 6.42281 11.5283 7.00839 11.7638 7.56967L11.7145 7.45304C11.8828 7.85099 12.0884 8.23455 12.3529 8.57738L12.2811 8.48451C12.4481 8.69896 12.6371 8.895 12.8523 9.06155L12.7631 8.99265C12.9356 9.12432 13.1219 9.23508 13.3213 9.32072L13.2195 9.27777C13.2706 9.29926 13.3223 9.31921 13.3746 9.33762C13.4793 9.37449 13.5695 9.43351 13.6269 9.53163C13.6798 9.62211 13.7023 9.75549 13.6694 9.85695C13.6004 10.0703 13.3766 10.2202 13.1502 10.1518L13.1501 10.1517ZM32.2656 42.4773C34.2492 42.6669 36.2036 42.9424 38.1525 43.349C40.0946 43.7542 42.1281 43.9342 43.9149 44.8644C44.4758 45.1563 45.0122 45.5295 45.3707 46.0505C47.8375 49.6354 40.0755 50.2312 38.3289 50.402C34.0017 50.8253 29.7719 50.516 25.4638 50.1241C21.3967 49.7542 17.233 48.7475 13.5981 46.8575C12.8959 46.4925 12.1997 46.0822 11.673 45.4916C11.1463 44.9009 10.8061 44.0993 10.9322 43.3181C11.3124 44.4422 12.4468 45.1218 13.5502 45.5584C16.5949 46.7631 19.9734 46.8459 23.2316 46.5207C25.4208 46.3023 27.6051 45.9036 29.6636 45.1269C30.6736 44.7458 31.9701 44.1267 32.2556 42.9764" fill="black"/>
<path d="M32.2656 41.9852C32.8536 42.0104 33.4454 42.0289 34.0303 42.0935C34.647 42.1619 35.2626 42.2399 35.8769 42.3275C37.0182 42.4897 38.1438 42.7209 39.2781 42.9225C40.3397 43.1111 41.409 43.2791 42.4449 43.5853C43.4937 43.8952 44.5751 44.3433 45.3914 45.0911C46.2903 45.9144 46.8967 47.3463 46.1712 48.469C45.5735 49.3939 44.4611 49.8616 43.4524 50.1815C42.339 50.5345 41.1785 50.7216 40.0224 50.8696C38.7929 51.0268 37.5577 51.1357 36.3197 51.1962C33.9319 51.313 31.5395 51.2341 29.1558 51.0713C26.8331 50.9127 24.499 50.738 22.2033 50.3391C20.0518 49.9653 17.929 49.4006 15.8965 48.5987C14.8583 48.1891 13.8289 47.7328 12.8558 47.1847C11.8562 46.6216 10.9594 45.884 10.5089 44.8028C10.2874 44.2713 10.2386 43.7165 10.3231 43.1503C10.362 42.8902 10.6807 42.6753 10.9322 42.6866C11.224 42.6996 11.4462 42.8766 11.5413 43.1503C11.5551 43.1901 11.5706 43.2293 11.5847 43.2691C11.6181 43.3631 11.5178 43.1364 11.591 43.2791C11.6251 43.3455 11.6582 43.4119 11.6962 43.4764C11.7339 43.5404 11.7742 43.6028 11.8169 43.6635C11.819 43.6665 11.9185 43.7928 11.8567 43.7187C11.8014 43.6524 11.9067 43.7754 11.9185 43.7887C12.0242 43.9074 12.1378 44.0187 12.2585 44.122C12.2939 44.1523 12.4339 44.262 12.3287 44.1827C12.4106 44.2444 12.4944 44.3036 12.58 44.3601C12.8541 44.541 13.1453 44.6954 13.4439 44.8315C13.4813 44.8486 13.7187 44.9484 13.5764 44.8907C13.643 44.9179 13.7097 44.9446 13.7767 44.9708C13.9707 45.0462 14.1663 45.1173 14.3635 45.184C15.1301 45.4436 15.9182 45.638 16.7155 45.7765C16.8998 45.8082 17.0845 45.8373 17.2697 45.8638C17.399 45.8825 17.3131 45.87 17.2854 45.8663C17.3473 45.8745 17.4092 45.8823 17.4712 45.8897C17.5745 45.9023 17.6779 45.914 17.7815 45.9248C18.1758 45.9665 18.5711 45.9975 18.9671 46.0179C20.5829 46.1 22.2046 46.01 23.8108 45.8273C24.0146 45.8038 24.2181 45.7788 24.4215 45.7525C24.5435 45.7369 24.2727 45.7737 24.4787 45.7447L24.607 45.7266C24.7246 45.7099 24.8422 45.6924 24.9595 45.6743C25.3755 45.61 25.7902 45.5371 26.203 45.454C27.0058 45.2924 27.8012 45.0924 28.5817 44.8439C28.9868 44.7149 29.3893 44.5748 29.7835 44.4152C29.8108 44.4042 29.8408 44.3943 29.8669 44.3811C29.7259 44.453 29.8522 44.3871 29.8867 44.372C29.9649 44.3377 30.0426 44.3021 30.1197 44.2653C30.2693 44.1942 30.416 44.1172 30.5595 44.0343C30.71 43.9469 30.8526 43.85 30.9942 43.7492C30.8804 43.8302 30.9704 43.7683 30.9985 43.746C31.035 43.7171 31.071 43.6875 31.1063 43.6571C31.1703 43.6021 31.232 43.5444 31.2912 43.4841C31.3443 43.4297 31.3932 43.3722 31.4429 43.3147C31.2898 43.4918 31.592 43.1027 31.4592 43.2942C31.485 43.257 31.5117 43.2205 31.5362 43.1824C31.5771 43.1187 31.61 43.0514 31.6475 42.986C31.7188 42.8612 31.6232 43.0628 31.6535 42.9785C31.672 42.9271 31.6929 42.8779 31.7067 42.825C31.782 42.5368 32.1171 42.3335 32.407 42.4273C32.7037 42.5233 32.8853 42.8188 32.8046 43.1276C32.7167 43.464 32.593 43.7879 32.3827 44.0683C32.144 44.3865 31.868 44.6442 31.5444 44.8755C31.0064 45.26 30.3844 45.5191 29.7686 45.7501C28.1318 46.364 26.4147 46.7398 24.6855 46.9776C21.2772 47.4462 17.702 47.5639 14.3818 46.523C12.7527 46.0122 10.934 45.2217 10.3232 43.4859H11.5414C11.5576 43.3742 11.5429 43.4972 11.5408 43.5416C11.538 43.5974 11.5376 43.6534 11.5392 43.7093C11.5408 43.7651 11.5458 43.8207 11.5505 43.8764C11.5395 43.7442 11.564 43.9417 11.5735 43.984C11.5984 44.0943 11.6328 44.2008 11.6691 44.3078C11.7075 44.4208 11.6406 44.2575 11.6914 44.3658C11.7194 44.426 11.7491 44.4854 11.7805 44.5439C11.8347 44.6442 11.8943 44.7416 11.9591 44.8355C11.9789 44.8644 12.0849 44.9971 12.0128 44.9122C12.0559 44.963 12.0981 45.0143 12.1429 45.0636C12.3088 45.246 12.4905 45.4134 12.6857 45.564C12.6056 45.5021 12.7204 45.5878 12.746 45.6062C12.8023 45.6465 12.8592 45.6859 12.9168 45.7243C13.0241 45.7958 13.1331 45.8646 13.2438 45.9306C13.4568 46.0579 13.6751 46.1761 13.8953 46.2905C14.3687 46.5363 14.8495 46.7674 15.3371 46.9836C15.4499 47.0336 15.5635 47.082 15.6767 47.1314C15.7447 47.1611 15.6773 47.1319 15.6655 47.1269C15.6939 47.1389 15.7224 47.1508 15.751 47.1627C15.8175 47.1904 15.8842 47.2178 15.951 47.245C16.1994 47.3461 16.4493 47.4436 16.7004 47.5375C17.1945 47.7221 17.6933 47.8934 18.1965 48.0513C19.2052 48.3682 20.23 48.6332 21.2646 48.8514C21.7812 48.9602 22.3002 49.0578 22.8211 49.1438C23.1469 49.1977 23.4734 49.2473 23.8006 49.2926C23.8354 49.2974 23.9825 49.3167 23.8742 49.3027C24.017 49.3211 24.1597 49.3395 24.3027 49.3567C25.4099 49.4903 26.5233 49.5773 27.6348 49.6666C29.9261 49.8507 32.2242 49.9812 34.5237 49.9549C36.0976 49.9369 37.6665 49.8309 39.2313 49.665C39.5097 49.6356 39.7877 49.6029 40.0653 49.5671C40.0989 49.5627 40.1325 49.5581 40.166 49.5538C40.2359 49.5448 40.0485 49.5698 40.0663 49.5672C40.0858 49.5643 40.1054 49.5619 40.1249 49.5592C40.2499 49.5419 40.3748 49.5238 40.4996 49.505C41.0451 49.4223 41.5884 49.323 42.1256 49.1971C42.652 49.0736 43.1745 48.9253 43.6783 48.7281C43.7344 48.7062 43.7895 48.6817 43.8456 48.6603C43.7921 48.6806 43.7047 48.7215 43.7995 48.679C43.8307 48.665 43.8619 48.6513 43.893 48.6371C44.0053 48.5858 44.1158 48.5309 44.2245 48.4723C44.3279 48.4167 44.429 48.3569 44.5276 48.2931C44.5712 48.2648 44.6143 48.2355 44.6567 48.2053C44.6775 48.1905 44.6979 48.175 44.7186 48.1602C44.8171 48.0895 44.609 48.2514 44.6764 48.1926C44.7554 48.1235 44.8356 48.0573 44.9089 47.9818C44.941 47.9483 44.9722 47.914 45.0026 47.879C45.1147 47.7517 44.9229 47.9998 45.0053 47.877C45.0583 47.7983 45.1067 47.7165 45.15 47.632C45.218 47.4996 45.0977 47.7896 45.1423 47.648C45.1563 47.6034 45.1713 47.5595 45.1826 47.514C45.1918 47.4768 45.2187 47.3055 45.1991 47.4509C45.1798 47.5943 45.1988 47.4235 45.1999 47.3824C45.201 47.3366 45.2 47.2909 45.197 47.2452C45.1954 47.2218 45.1921 47.1984 45.1907 47.175C45.1861 47.0967 45.2266 47.3663 45.1963 47.2286C45.173 47.123 45.1479 47.0196 45.1113 46.9175C45.102 46.8916 45.0901 46.8662 45.0819 46.8401C45.0701 46.803 45.1536 46.9968 45.1026 46.8904C45.0723 46.827 45.0422 46.7638 45.0085 46.7019C44.939 46.5743 44.8607 46.452 44.7769 46.3333C44.7064 46.2335 44.8231 46.3808 44.7415 46.2901C44.6982 46.242 44.6559 46.1932 44.6108 46.1467C44.5267 46.06 44.4369 45.9805 44.3455 45.9018C44.2524 45.8217 44.4009 45.9384 44.3014 45.866C44.2562 45.8331 44.2107 45.8004 44.1645 45.7689C44.064 45.7006 43.9611 45.636 43.8561 45.575C43.6348 45.4461 43.4054 45.3311 43.172 45.226C43.1441 45.2135 43.1161 45.2011 43.0881 45.1887C43.0835 45.1867 42.9908 45.1473 43.0536 45.1736C43.1164 45.1999 43.0234 45.1615 43.0186 45.1597C42.9903 45.1483 42.962 45.1371 42.9337 45.1258C42.8014 45.0739 42.6682 45.0244 42.534 44.9776C42.2946 44.8942 42.0526 44.8184 41.8083 44.7505C41.3088 44.6108 40.8019 44.4994 40.2931 44.3989C39.2398 44.1905 38.1849 43.9938 37.1326 43.7796C36.0222 43.5536 34.9019 43.3586 33.7778 43.2139C33.7925 43.2158 33.8322 43.2213 33.7649 43.2126C33.7031 43.2047 33.6405 43.1987 33.5791 43.1881C33.5138 43.1769 33.449 43.1618 33.3836 43.1507C33.2525 43.1284 33.1214 43.1063 32.9901 43.0853C32.7378 43.0448 32.4181 42.9943 32.135 42.952C31.8964 42.9163 31.75 42.6282 31.7825 42.4121C31.8173 42.1807 32.017 41.9747 32.2658 41.9854L32.2656 41.9852Z" fill="black"/>
<path d="M32.8447 40.9919C32.4506 41.1297 32.0575 41.2707 31.6629 41.4073C31.2622 41.5459 30.8514 41.6577 30.4428 41.7707C29.632 41.995 28.8138 42.1889 27.99 42.359C26.3342 42.701 24.6664 42.9898 22.9814 43.1392C21.4699 43.2733 19.9489 43.3188 18.433 43.241C16.9021 43.1625 15.3675 42.9512 13.8795 42.5802C12.3916 42.2093 10.9518 41.6697 9.60763 40.943C9.52651 40.8991 9.44003 40.8586 9.36291 40.808C9.2599 40.7404 9.18029 40.646 9.09725 40.5565C8.78332 40.2183 9.0934 39.6848 9.5432 39.7905C9.66399 39.8189 9.78443 39.8383 9.89623 39.8956C9.97901 39.9381 10.0591 39.9864 10.141 40.0306C10.3047 40.1189 10.4698 40.2044 10.6364 40.287C10.8864 40.4109 10.9703 40.449 11.1392 40.5258C11.2176 40.5614 11.2962 40.5964 11.3751 40.6308C11.4175 40.6493 11.4601 40.6676 11.5027 40.6858C11.5138 40.6906 11.576 40.7178 11.5126 40.6901C11.4401 40.6584 11.5446 40.7032 11.5593 40.7093C12.238 40.9894 12.9345 41.2259 13.6419 41.4223C14.3589 41.6214 15.0871 41.7794 15.821 41.9014C16.0053 41.932 16.1899 41.9604 16.3749 41.9865C16.4207 41.993 16.4686 41.9961 16.5138 42.0058C16.5116 42.0053 16.4105 41.9923 16.4722 42.0001L16.5318 42.0078C16.6313 42.0206 16.7309 42.0328 16.8305 42.0444C17.1965 42.0868 17.5633 42.1213 17.9308 42.148C19.4322 42.2573 20.9395 42.25 22.4411 42.1482C23.2317 42.0946 24.0197 42.0106 24.8074 41.9255C25.1173 41.892 25.4269 41.8551 25.7361 41.8149C25.7802 41.8091 25.8244 41.8033 25.8685 41.7975C25.9456 41.7873 25.7972 41.8075 25.8744 41.7966L25.9631 41.7844C26.3766 41.7272 26.7886 41.6603 27.199 41.5839C28.8322 41.2798 30.4391 40.8631 32.0449 40.4411C32.2463 40.3881 32.4455 40.327 32.6447 40.2662C32.833 40.2087 33.0634 40.3346 33.1076 40.529C33.1555 40.7391 33.044 40.9222 32.8448 40.9919H32.8447Z" fill="black"/>
</g>
<defs>
<clipPath id="clip0_74_4605">
<rect width="52" height="52" fill="white" transform="matrix(-1 0 0 1 52 0)"/>
</clipPath>
</defs>
</svg>
