<svg width="24" height="24" viewBox="0 0 24 24" fill="none" xmlns="http://www.w3.org/2000/svg">
<path fill-rule="evenodd" clip-rule="evenodd" d="M12.707 21C12.983 20.9999 13.207 20.7761 13.207 20.5V7.41406L16.8535 11.0605C17.0487 11.2557 17.3653 11.2558 17.5605 11.0605L18.2675 10.3535C18.4628 10.1583 18.4627 9.84175 18.2675 9.64648L12.914 4.29297C12.5235 3.90244 11.8905 3.90244 11.5 4.29297L6.14645 9.64648C5.95118 9.84175 5.95118 10.1583 6.14645 10.3535L6.85348 11.0605C7.04875 11.2557 7.36528 11.2558 7.56051 11.0605L11.207 7.41406V20.5C11.207 20.7761 11.4309 21 11.707 21H12.707Z" fill="black"/>
</svg>
