<svg width="16" height="16" viewBox="0 0 16 16" fill="none" xmlns="http://www.w3.org/2000/svg">
<path fill-rule="evenodd" clip-rule="evenodd" d="M7.32373 3.32751C7.72963 3.32754 8.08853 3.60087 8.20166 3.98767L8.58838 5.33435C8.88118 6.3481 9.65304 7.12862 10.6646 7.4154L12.0015 7.80212V7.79626C12.3874 7.90964 12.6606 8.26933 12.6606 8.67615C12.6606 9.0829 12.3881 9.44355 11.9956 9.557L10.6577 9.93689C9.64621 10.2303 8.86769 11.0042 8.58154 12.0179L8.1958 13.3578C8.08267 13.7379 7.73614 13.9984 7.31689 13.9984C6.8977 13.9984 6.55208 13.7446 6.43896 13.3578L6.05225 12.0179C5.75944 11.0042 4.98758 10.2237 3.97607 9.93689L2.63916 9.55017C2.25319 9.43679 1.97998 9.07615 1.97998 8.66931C1.98008 8.26272 2.25271 7.90294 2.64502 7.78943L3.98291 7.40857C4.99429 7.11515 5.77284 6.34205 6.05908 5.32849L6.44482 3.98767C6.55795 3.60084 6.9178 3.32751 7.32373 3.32751ZM11.4292 2.29333C11.5623 1.89995 12.1017 1.90002 12.2349 2.29333C12.5343 3.20024 12.7804 3.44737 13.6851 3.74743C14.0777 3.88082 14.0777 4.42069 13.6851 4.55407C12.7803 4.85413 12.5343 5.10142 12.2349 6.00818C12.1018 6.40167 11.5623 6.40167 11.4292 6.00818C11.1298 5.1014 10.8839 4.85416 9.979 4.55407C9.78615 4.49409 9.68617 4.32794 9.68604 4.15466C9.68604 3.98126 9.78602 3.81413 9.979 3.74743C10.8839 3.44733 11.1298 3.20033 11.4292 2.29333Z" fill="url(#paint0_linear_74_2853)"/>
<path fill-rule="evenodd" clip-rule="evenodd" d="M7.32373 3.32751C7.72963 3.32754 8.08853 3.60087 8.20166 3.98767L8.58838 5.33435C8.88118 6.3481 9.65304 7.12862 10.6646 7.4154L12.0015 7.80212V7.79626C12.3874 7.90964 12.6606 8.26933 12.6606 8.67615C12.6606 9.0829 12.3881 9.44355 11.9956 9.557L10.6577 9.93689C9.64621 10.2303 8.86769 11.0042 8.58154 12.0179L8.1958 13.3578C8.08267 13.7379 7.73614 13.9984 7.31689 13.9984C6.8977 13.9984 6.55208 13.7446 6.43896 13.3578L6.05225 12.0179C5.75944 11.0042 4.98758 10.2237 3.97607 9.93689L2.63916 9.55017C2.25319 9.43679 1.97998 9.07615 1.97998 8.66931C1.98008 8.26272 2.25271 7.90294 2.64502 7.78943L3.98291 7.40857C4.99429 7.11515 5.77284 6.34205 6.05908 5.32849L6.44482 3.98767C6.55795 3.60084 6.9178 3.32751 7.32373 3.32751ZM11.4292 2.29333C11.5623 1.89995 12.1017 1.90002 12.2349 2.29333C12.5343 3.20024 12.7804 3.44737 13.6851 3.74743C14.0777 3.88082 14.0777 4.42069 13.6851 4.55407C12.7803 4.85413 12.5343 5.10142 12.2349 6.00818C12.1018 6.40167 11.5623 6.40167 11.4292 6.00818C11.1298 5.1014 10.8839 4.85416 9.979 4.55407C9.78615 4.49409 9.68617 4.32794 9.68604 4.15466C9.68604 3.98126 9.78602 3.81413 9.979 3.74743C10.8839 3.44733 11.1298 3.20033 11.4292 2.29333Z" fill="#194020"/>
<defs>
<linearGradient id="paint0_linear_74_2853" x1="12.9226" y1="21.5386" x2="2.15308" y2="3.38504" gradientUnits="userSpaceOnUse">
<stop stop-color="#D7EE4C"/>
<stop offset="1" stop-color="#00C724"/>
</linearGradient>
</defs>
</svg>
