<svg width="16" height="16" viewBox="0 0 16 16" fill="none" xmlns="http://www.w3.org/2000/svg">
<path fill-rule="evenodd" clip-rule="evenodd" d="M15.7233 0.276841C16.0923 0.645964 16.0924 1.24503 15.7233 1.61409L9.33725 8.00013L15.7233 14.3862C16.0923 14.7553 16.0924 15.3544 15.7233 15.7234C15.3542 16.0923 14.7551 16.0923 14.386 15.7234L8 9.33738L1.61397 15.7234C1.24489 16.0923 0.645788 16.0923 0.276713 15.7234C-0.0923501 15.3544 -0.0922538 14.7553 0.276713 14.3862L6.66275 8.00013L0.276713 1.61409C-0.0923501 1.24503 -0.0922531 0.645964 0.276713 0.276841C0.645825 -0.0922709 1.24485 -0.0922711 1.61397 0.276841L8 6.66287L14.386 0.276841C14.7551 -0.0922711 15.3542 -0.0922709 15.7233 0.276841Z" fill="black"/>
</svg>
