<svg width="24" height="24" viewBox="0 0 24 24" fill="none" xmlns="http://www.w3.org/2000/svg">
<path fill-rule="evenodd" clip-rule="evenodd" d="M18.9097 13.3303C19.28 13.4406 19.4905 13.8301 19.3804 14.2004C18.498 17.165 15.8785 19.3823 12.7007 19.6692V21.301H15.0005C15.3871 21.301 15.7007 21.6146 15.7007 22.0012C15.7006 22.3877 15.387 22.7014 15.0005 22.7014H9.00053C8.6141 22.7013 8.30049 22.3876 8.30034 22.0012C8.30034 21.6147 8.61401 21.3011 9.00053 21.301H11.3003V19.6682C8.12186 19.3819 5.50124 17.1655 4.6187 14.2004C4.50872 13.8301 4.72011 13.4406 5.09038 13.3303C5.46079 13.2203 5.85026 13.4316 5.96049 13.802C6.73531 16.4044 9.14704 18.3009 11.9996 18.301C14.8521 18.301 17.2637 16.4044 18.0386 13.802C18.1489 13.4315 18.5392 13.2201 18.9097 13.3303ZM11.9996 1.20044C14.3744 1.20044 16.2994 3.12542 16.2994 5.50024V12.5002C16.2993 14.875 14.3743 16.8 11.9996 16.8C9.62495 16.7999 7.69986 14.8749 7.69975 12.5002V5.50024C7.69975 3.12553 9.62489 1.20062 11.9996 1.20044ZM11.9996 2.80005C10.5085 2.80023 9.29936 4.00919 9.29936 5.50024V12.5002C9.29947 13.9912 10.5086 15.2003 11.9996 15.2004C13.4907 15.2004 14.6996 13.9913 14.6998 12.5002V5.50024C14.6998 4.00908 13.4907 2.80005 11.9996 2.80005Z" fill="black"/>
</svg>
