<svg width="20" height="20" viewBox="0 0 20 20" fill="none" xmlns="http://www.w3.org/2000/svg">
<path fill-rule="evenodd" clip-rule="evenodd" d="M16.6666 1.9165C16.9884 1.91676 17.2494 2.17766 17.2496 2.49951V15.0542C17.2494 17.8361 15.3451 18.9164 14.2027 18.9165H2.08262C1.82489 18.9163 1.59778 18.7465 1.52403 18.4995C1.45054 18.2526 1.54782 17.9865 1.76328 17.8452H1.76231L1.76035 17.8462L1.77305 17.8364C1.79229 17.8211 1.8257 17.7928 1.86875 17.7505C1.95502 17.6657 2.08057 17.5233 2.20957 17.312C2.46491 16.8935 2.74953 16.179 2.74961 15.0542V2.49951C2.74979 2.17762 3.01171 1.9167 3.3336 1.9165H6.20078C5.93051 2.37528 5.73956 2.88362 5.64707 3.41846L5.61778 3.61572C5.49602 4.5822 6.29718 5.25049 7.0836 5.25049H12.9166C13.703 5.2504 14.5032 4.58216 14.3814 3.61572C14.3048 3.00883 14.1016 2.43132 13.7984 1.9165H16.6666ZM1.7584 17.8481C1.7574 17.8488 1.75607 17.8497 1.75547 17.8501C1.75633 17.8495 1.75807 17.8479 1.76035 17.8462L1.7584 17.8481ZM6.6666 11.9175C6.34444 11.9175 6.0836 12.1783 6.0836 12.5005C6.08386 12.8224 6.3446 13.0835 6.6666 13.0835H11.6666C11.9885 13.0834 12.2493 12.8224 12.2496 12.5005C12.2496 12.1784 11.9887 11.9176 11.6666 11.9175H6.6666ZM6.6666 8.5835C6.34449 8.5835 6.08368 8.84441 6.0836 9.1665C6.0836 9.48867 6.34444 9.74951 6.6666 9.74951H13.3336C13.6555 9.74925 13.9166 9.48851 13.9166 9.1665C13.9165 8.84458 13.6555 8.58376 13.3336 8.5835H6.6666ZM10.0836 1.9165C10.874 1.9167 11.5943 2.38842 11.9723 3.0835H8.02793C8.40601 2.38835 9.12607 1.9165 9.9166 1.9165H10.0836Z" fill="#B3ADA6"/>
<path d="M13.3073 3.75091C13.3361 3.97922 13.1469 4.16666 12.9167 4.16666H7.08341C6.8533 4.16666 6.66406 3.97922 6.69291 3.75091C6.89639 2.14055 8.26218 0.833328 9.91675 0.833328H10.0834C11.738 0.833328 13.1038 2.14055 13.3073 3.75091Z" fill="#B3ADA6"/>
</svg>
