<svg width="24" height="24" viewBox="0 0 24 24" fill="none" xmlns="http://www.w3.org/2000/svg">
<path d="M8.75 10L9.00098 17.75" stroke="black" stroke-width="1.4" stroke-linecap="round" stroke-linejoin="round"/>
<path d="M15.251 10L15 17.75" stroke="black" stroke-width="1.4" stroke-linecap="round" stroke-linejoin="round"/>
<path d="M12 10V17.75" stroke="black" stroke-width="1.4" stroke-linecap="round" stroke-linejoin="round"/>
<path d="M13.0637 1.29999C13.9243 1.30027 14.688 1.85168 14.9602 2.66815L15.5051 4.29999H20.2502C20.6368 4.30009 20.9504 4.61365 20.9504 5.00018C20.9503 5.38663 20.6367 5.70027 20.2502 5.70038H19.6604L18.7708 20.8176C18.7085 21.8745 17.8334 22.7002 16.7747 22.7004H7.22583C6.16703 22.7003 5.29202 21.8745 5.22974 20.8176L4.34009 5.70038H3.75024C3.36371 5.70038 3.05015 5.38669 3.05005 5.00018C3.05005 4.61358 3.36364 4.29999 3.75024 4.29999H8.49536L9.04028 2.66815C9.31246 1.85161 10.0761 1.30019 10.9368 1.29999H13.0637ZM6.6272 20.7355C6.64601 21.0524 6.90834 21.2999 7.22583 21.3H16.7747C17.0921 21.2998 17.3545 21.0524 17.3733 20.7355L18.2571 5.70038H5.74341L6.6272 20.7355ZM10.9368 2.70038C10.6787 2.70058 10.45 2.8657 10.3684 3.11053L9.97192 4.29999H14.0286L13.6321 3.11053C13.5505 2.86576 13.3217 2.70066 13.0637 2.70038H10.9368Z" fill="black"/>
</svg>
