<svg width="40" height="40" viewBox="0 0 40 40" fill="none" xmlns="http://www.w3.org/2000/svg">
<path d="M20.9482 1C26.5395 1 29.3357 0.99964 31.5409 1.91309C34.4813 3.13101 36.8172 5.46787 38.0351 8.4082C38.9484 10.6134 38.9482 13.409 38.9482 19C38.9482 24.591 38.9484 27.3866 38.0351 29.5918C36.8172 32.5321 34.4813 34.869 31.5409 36.0869C29.3357 37.0004 26.5395 37 20.9482 37C17.8899 37 15.6683 36.9989 13.9221 36.8489C12.8211 36.7543 11.7061 36.7625 10.63 37.0136L3.45696 38.6875C1.93389 39.0429 0.610906 37.5912 1.1054 36.1074L2.76923 31.1146C3.28502 29.5668 3.27704 27.8985 3.12033 26.2745C2.94825 24.4913 2.94817 22.2049 2.94817 19C2.94817 13.4089 2.9489 10.6134 3.86223 8.4082C5.08016 5.46787 7.41604 3.13101 10.3564 1.91309C12.5616 0.999712 15.3573 1 20.9482 1Z" fill="#F2EBE1"/>
<path d="M13.6924 20.6699C13.9309 20.2982 14.4264 20.1916 14.8028 20.4229C17.3008 21.9582 19.1208 22.6742 20.835 22.7109C22.5207 22.7469 24.3217 22.1271 26.7793 20.4854C27.1466 20.2401 27.6452 20.3232 27.9004 20.6836L28.5342 21.5791C28.7894 21.9397 28.7046 22.4411 28.3379 22.6875C25.6298 24.5065 23.2617 25.4611 20.7783 25.4082C18.3344 25.3561 15.9964 24.3285 13.3457 22.6934C12.9696 22.4613 12.862 21.9647 13.1006 21.5928L13.6924 20.6699ZM15.5479 13C16.7642 13 17.7509 13.9858 17.751 15.2021C17.751 16.4186 16.7643 17.4053 15.5479 17.4053C14.3316 17.4051 13.3457 16.4184 13.3457 15.2021C13.3458 13.986 14.3317 13.0002 15.5479 13ZM26.0108 13C27.227 13.0002 28.2128 13.9859 28.2129 15.2021C28.2129 16.4185 27.227 17.4051 26.0108 17.4053C24.7943 17.4053 23.8076 16.4186 23.8076 15.2021C23.8078 13.9858 24.7944 13 26.0108 13Z" fill="#121212"/>
</svg>
