<svg width="38" height="38" viewBox="0 0 38 38" fill="none" xmlns="http://www.w3.org/2000/svg">
<path d="M19.9482 2.23105e-10C25.5395 2.23105e-10 28.3357 -0.000359887 30.5409 0.913086C33.4813 2.13101 35.8172 4.46787 37.0351 7.4082C37.9484 9.61341 37.9482 12.409 37.9482 18C37.9482 23.591 37.9484 26.3866 37.0351 28.5918C35.8172 31.5321 33.4813 33.869 30.5409 35.0869C28.3357 36.0004 25.5395 36 19.9482 36C16.8899 36 14.6683 35.9989 12.9221 35.8489C11.8211 35.7543 10.7061 35.7625 9.62996 36.0136L2.45696 37.6875C0.933886 38.0429 -0.389094 36.5912 0.105399 35.1074L1.76923 30.1146C2.28502 28.5668 2.27704 26.8985 2.12033 25.2745C1.94825 23.4913 1.94817 21.2049 1.94817 18C1.94817 12.4089 1.9489 9.61341 2.86223 7.4082C4.08016 4.46787 6.41604 2.13101 9.35638 0.913086C11.5616 -0.000287852 14.3573 7.79249e-10 19.9482 2.23105e-10Z" fill="#F2EBE1"/>
<path d="M12.6924 19.6699C12.9309 19.2982 13.4264 19.1916 13.8028 19.4229C16.3008 20.9582 18.1208 21.6742 19.835 21.7109C21.5207 21.7469 23.3217 21.1271 25.7793 19.4854C26.1466 19.2401 26.6452 19.3232 26.9004 19.6836L27.5342 20.5791C27.7894 20.9397 27.7046 21.4411 27.3379 21.6875C24.6298 23.5065 22.2617 24.4611 19.7783 24.4082C17.3344 24.3561 14.9964 23.3285 12.3457 21.6934C11.9696 21.4613 11.862 20.9647 12.1006 20.5928L12.6924 19.6699ZM14.5479 12C15.7642 12 16.7509 12.9858 16.751 14.2021C16.751 15.4186 15.7643 16.4053 14.5479 16.4053C13.3316 16.4051 12.3457 15.4184 12.3457 14.2021C12.3458 12.986 13.3317 12.0002 14.5479 12ZM25.0108 12C26.227 12.0002 27.2128 12.9859 27.2129 14.2021C27.2129 15.4185 26.227 16.4051 25.0108 16.4053C23.7943 16.4053 22.8076 15.4186 22.8076 14.2021C22.8078 12.9858 23.7944 12 25.0108 12Z" fill="#121212"/>
</svg>
