<svg width="38" height="38" viewBox="0 0 38 38" fill="none" xmlns="http://www.w3.org/2000/svg">
<path fill-rule="evenodd" clip-rule="evenodd" d="M19.9754 2.2341e-10C25.5743 2.2341e-10 28.3743 -0.000360378 30.5826 0.914331C33.5269 2.13392 35.866 4.47396 37.0856 7.41831C38.0002 9.62652 37.9999 12.4259 37.9999 18.0246C37.9999 23.6232 38.0002 26.4226 37.0856 28.6308C35.866 31.5751 33.5269 33.9152 30.5826 35.1348C28.3743 36.0495 25.5743 36.0491 19.9754 36.0491C16.913 36.0491 14.6883 36.048 12.9397 35.8978C11.8372 35.803 10.7207 35.8112 9.64309 36.0627L2.46031 37.7389C0.93516 38.0947 -0.389624 36.6411 0.105543 35.1553L1.77164 30.1557C2.28814 28.6058 2.28014 26.9352 2.12322 25.309C1.9509 23.5234 1.95083 21.2338 1.95083 18.0246C1.95083 12.4259 1.95156 9.62653 2.86614 7.41831C4.08573 4.47396 6.42479 2.13392 9.36914 0.914331C11.5773 -0.000288244 14.3768 7.80312e-10 19.9754 2.2341e-10Z" fill="#F2EBE1"/>
<path fill-rule="evenodd" clip-rule="evenodd" d="M12.7095 19.6967C12.9483 19.3245 13.4445 19.2177 13.8213 19.4493C16.3228 20.9868 18.1453 21.7038 19.8618 21.7405C21.5499 21.7765 23.3533 21.1559 25.8142 19.5119C26.182 19.2663 26.6813 19.3496 26.9369 19.7104L27.5715 20.6072C27.827 20.9683 27.7421 21.4704 27.375 21.7171C24.6631 23.5385 22.2918 24.4944 19.8051 24.4415C17.3578 24.3893 15.0166 23.3604 12.3623 21.7229C11.9857 21.4906 11.8779 20.9933 12.1169 20.6209L12.7095 19.6967ZM14.5675 12.0164C15.7855 12.0164 16.7735 13.0035 16.7736 14.2215C16.7736 15.4396 15.7856 16.4276 14.5675 16.4276C13.3496 16.4274 12.3623 15.4395 12.3623 14.2215C12.3624 13.0037 13.3496 12.0166 14.5675 12.0164ZM25.0446 12.0164C26.2625 12.0165 27.2497 13.0036 27.2498 14.2215C27.2498 15.4395 26.2626 16.4275 25.0446 16.4276C23.8265 16.4276 22.8385 15.4396 22.8385 14.2215C22.8386 13.0035 23.8266 12.0164 25.0446 12.0164Z" fill="#121212"/>
</svg>
