<svg width="64" height="64" viewBox="0 0 64 64" fill="none" xmlns="http://www.w3.org/2000/svg">
<ellipse cx="33.5" cy="40" rx="8.5" ry="10" fill="white"/>
<ellipse cx="10.5" cy="34" rx="8.5" ry="10" fill="white"/>
<path d="M7.90746 23.1061C7.15092 23.2661 6.41069 23.5269 5.71642 23.8671C5.53997 23.9537 5.36686 24.0468 5.19744 24.1465L5.37031 24.0735C5.26906 24.1157 5.18861 24.1497 5.101 24.205C5.05876 24.2317 5.01675 24.2588 4.97498 24.2864C4.89972 24.3361 4.82534 24.3871 4.75188 24.4394C4.55596 24.5793 4.36491 24.7259 4.17908 24.8789C3.90075 25.1076 3.63832 25.3549 3.3936 25.6192C2.86311 26.1914 2.39872 26.8534 2.04352 27.5486C1.67565 28.2688 1.38494 29.0259 1.17626 29.8073C0.964036 30.6036 0.837252 31.4258 0.775812 32.2471C0.719159 33.0115 0.729266 33.7793 0.80602 34.5419C0.889412 35.3744 1.03143 36.2023 1.25722 37.0083C1.47917 37.8009 1.78196 38.5738 2.15021 39.3098C2.5136 40.036 2.96032 40.7084 3.46874 41.3409C4.05997 42.0764 4.76685 42.7172 5.56704 43.2197C6.03002 43.5104 6.52692 43.7419 7.03744 43.9361C7.48188 44.105 7.94184 44.2297 8.41069 44.3086C8.9458 44.3987 9.48736 44.452 10.0303 44.4397C10.5675 44.4276 11.1082 44.3604 11.6335 44.2491C12.1344 44.1428 12.6157 43.9798 13.0869 43.781C13.5609 43.581 14.0156 43.3463 14.4424 43.0579C14.9072 42.7439 15.349 42.3867 15.7432 41.9872C16.1539 41.5712 16.5212 41.1085 16.8584 40.6319C17.508 39.7141 17.9973 38.6874 18.3676 37.6276C18.7435 36.552 18.9671 35.4281 19.0699 34.2942C19.1713 33.1754 19.1171 32.0543 18.9402 30.9457C18.7916 30.015 18.5271 29.1003 18.1685 28.229C17.7916 27.3131 17.3375 26.4348 16.7338 25.6463C16.1224 24.8478 15.4092 24.1331 14.5519 23.5971C13.6928 23.0601 12.7035 22.724 11.6906 22.6661C11.1464 22.635 10.6081 22.6978 10.0738 22.7993C9.87725 22.8366 9.67149 23.0167 9.57364 23.1839C9.46868 23.3633 9.4242 23.6277 9.48928 23.8288C9.55482 24.0313 9.68032 24.2267 9.87392 24.329C10.0821 24.439 10.2872 24.4573 10.5189 24.4133C10.6134 24.3959 10.7084 24.3809 10.8037 24.3684L10.5804 24.3984C11.1363 24.325 11.6925 24.32 12.2486 24.3932L12.028 24.3636C12.4819 24.4256 12.9256 24.5469 13.3479 24.7244L13.1583 24.6444C13.5865 24.8261 13.9875 25.0779 14.3555 25.3608L14.198 25.2391C14.6655 25.6013 15.0728 26.0358 15.4342 26.5028L15.3119 26.3445C15.8531 27.0476 16.286 27.829 16.6311 28.6453L16.5509 28.4552C16.8662 29.2044 17.1078 29.9825 17.2723 30.7785C17.3247 31.0331 17.3678 31.2895 17.4029 31.5471L17.374 31.3316C17.5211 32.4309 17.5071 33.5488 17.3601 34.6475L17.39 34.4251C17.3762 34.5263 17.3626 34.6276 17.3492 34.7289L17.3791 34.5064C17.2119 35.6192 16.9283 36.7052 16.4911 37.7436L16.5779 37.5379C16.1932 38.446 15.7 39.3122 15.0974 40.0937L15.2339 39.917C14.8049 40.4704 14.322 40.9781 13.7679 41.4078L13.9448 41.2712C13.4424 41.6582 12.8927 41.9794 12.3089 42.2271L12.5178 42.139C11.908 42.3954 11.267 42.5699 10.6114 42.6579L10.844 42.6267C10.1925 42.7123 9.53255 42.7117 8.88122 42.6248L9.11399 42.6561C8.48269 42.5699 7.86531 42.4018 7.27744 42.1561L7.48672 42.2444C6.91611 42.0032 6.37873 41.6899 5.88768 41.3122L6.06509 41.4492C5.51002 41.0192 5.02324 40.5088 4.59444 39.9538L4.73165 40.1314C4.29645 39.5659 3.92365 38.9539 3.61184 38.3122C3.52133 38.1256 3.43573 37.9366 3.35514 37.7455L3.44365 37.9553C3.09788 37.1311 2.83851 36.2733 2.6697 35.3957C2.6216 35.1458 2.58065 34.8945 2.54688 34.6423L2.57786 34.8728C2.45837 33.9743 2.42836 33.0638 2.49485 32.1598C2.51341 31.9083 2.53942 31.6575 2.57287 31.4076L2.5424 31.6344C2.64628 30.8667 2.821 30.1083 3.0768 29.3767C3.14824 29.1724 3.22602 28.9705 3.31002 28.7711L3.22528 28.9719C3.47687 28.3774 3.78208 27.7996 4.14298 27.2641C4.24409 27.1141 4.34991 26.9674 4.46029 26.8242L4.33415 26.9874C4.41332 26.8851 4.50144 26.7865 4.57338 26.6796L4.44794 26.842C4.84839 26.3321 5.30772 25.8706 5.81997 25.4729L5.67111 25.5879C5.80186 25.4869 5.95751 25.3973 6.0745 25.2827L5.92807 25.3959C6.36231 25.0775 6.83098 24.7964 7.32429 24.5792L7.17114 24.6438C7.24736 24.6139 7.3218 24.5797 7.39706 24.5479L7.24461 24.6122C7.56519 24.4777 7.8936 24.3627 8.22804 24.2678C8.53101 24.1817 8.74964 23.8381 8.64884 23.5267C8.54336 23.2007 8.23853 23.0359 7.90772 23.1059L7.90746 23.1061ZM31.4412 29.6902C30.6846 29.8502 29.9444 30.1111 29.2501 30.4512C29.0737 30.5378 28.9006 30.631 28.7311 30.7306L28.904 30.6576C28.8028 30.6999 28.7223 30.7338 28.6347 30.7891C28.5925 30.8158 28.5504 30.843 28.5087 30.8706C28.4334 30.9202 28.359 30.9712 28.2856 31.0235C28.0897 31.1634 27.8986 31.31 27.7128 31.4631C27.4345 31.6917 27.172 31.9391 26.9273 32.2034C26.3968 32.7755 25.9324 33.4375 25.5772 34.1327C25.2093 34.853 24.9186 35.6101 24.71 36.3915C24.4977 37.1877 24.3709 38.0099 24.3095 38.8313C24.2529 39.5956 24.263 40.3634 24.3397 41.126C24.4231 41.9586 24.5651 42.7864 24.7909 43.5925C25.0129 44.3851 25.3157 45.1579 25.6839 45.8939C26.0473 46.6201 26.494 47.2925 27.0024 47.925C27.5937 48.6606 28.3005 49.3013 29.1007 49.8038C29.5637 50.0946 30.0606 50.326 30.5711 50.5202C31.0156 50.6891 31.4755 50.8139 31.9444 50.8927C32.4795 50.9828 33.0211 51.0361 33.564 51.0238C34.1012 51.0117 34.6419 50.9445 35.1672 50.8332C35.6681 50.7269 36.1494 50.5639 36.6206 50.3651C37.0946 50.1651 37.5493 49.9304 37.9761 49.6421C38.4409 49.328 38.8827 48.9708 39.2769 48.5714C39.6876 48.1554 40.0549 47.6926 40.3921 47.216C41.0417 46.2983 41.531 45.2715 41.9013 44.2117C42.2772 43.1362 42.5008 42.0122 42.6036 40.8784C42.705 39.7595 42.6508 38.6384 42.4739 37.5298C42.3253 36.5991 42.0608 35.6844 41.7022 34.8131C41.3253 33.8972 40.8712 33.019 40.2675 32.2304C39.6561 31.4319 38.9429 30.7172 38.0856 30.1813C37.2284 29.6453 36.2372 29.3081 35.2243 29.2502C34.6801 29.2191 34.1418 29.2819 33.6075 29.3834C33.4109 29.4207 33.2052 29.6008 33.1073 29.768C33.0024 29.9474 32.9579 30.2118 33.023 30.413C33.0885 30.6155 33.214 30.8108 33.4076 30.9131C33.6158 31.0231 33.8209 31.0414 34.0525 30.9975C34.1471 30.98 34.2421 30.9651 34.3374 30.9525L34.1141 30.9826C34.67 30.9091 35.2262 30.9041 35.7823 30.9774L35.5617 30.9477C36.0156 31.0097 36.4593 31.131 36.8816 31.3085L36.692 31.2285C37.1202 31.4103 37.5212 31.662 37.8892 31.9449L37.7317 31.8233C38.1992 32.1854 38.6065 32.6199 38.9679 33.0869L38.8456 32.9286C39.3868 33.6318 39.8197 34.4131 40.1648 35.2294L40.0846 35.0393C40.3999 35.7885 40.6415 36.5666 40.806 37.3626C40.8584 37.6172 40.9015 37.8736 40.9366 38.1312L40.9077 37.9157C41.0548 39.0151 41.0408 40.133 40.8938 41.2316L40.9237 41.0092C40.9099 41.1104 40.8963 41.2117 40.8829 41.313L40.9128 41.0905C40.7456 42.2034 40.462 43.2893 40.0248 44.3277L40.1116 44.1221C39.7269 45.0302 39.2337 45.8963 38.6311 46.6778L38.7676 46.5011C38.3386 47.0545 37.8557 47.5622 37.3016 47.9919L37.4785 47.8553C36.9761 48.2423 36.4264 48.5635 35.8426 48.8112L36.0515 48.7231C35.4417 48.9795 34.8007 49.154 34.1451 49.242L34.3777 49.2108C33.7262 49.2964 33.0662 49.2958 32.4149 49.2089L32.6477 49.2402C32.0164 49.154 31.399 48.9859 30.8111 48.7402L31.0204 48.8285C30.4498 48.5873 29.9124 48.274 29.4214 47.8963L29.5988 48.0334C29.0437 47.6034 28.5569 47.0929 28.1281 46.5379L28.2653 46.7156C27.8301 46.15 27.4573 45.538 27.1455 44.8963C27.055 44.7097 26.9694 44.5208 26.8888 44.3296L26.9773 44.5394C26.6316 43.7153 26.3722 42.8575 26.2034 41.9798C26.1553 41.7299 26.1143 41.4787 26.0806 41.2264L26.1116 41.4569C25.9921 40.5584 25.9621 39.648 26.0286 38.7439C26.0471 38.4925 26.0731 38.2417 26.1066 37.9918L26.0761 38.2185C26.18 37.4508 26.3547 36.6924 26.6105 35.9608C26.6819 35.7566 26.7597 35.5546 26.8437 35.3552L26.759 35.5561C27.0106 34.9615 27.3158 34.3838 27.6767 33.8482C27.7778 33.6983 27.8836 33.5515 27.994 33.4083L27.8678 33.5716C27.947 33.4692 28.0351 33.3706 28.1071 33.2638L27.9816 33.4261C28.3821 32.9163 28.8414 32.4547 29.3537 32.057L29.2048 32.172C29.3356 32.071 29.4912 31.9815 29.6082 31.8668L29.4618 31.98C29.896 31.6616 30.3647 31.3805 30.858 31.1633L30.7048 31.2279C30.7811 31.198 30.8555 31.1639 30.9308 31.132L30.7783 31.1963C31.0989 31.0618 31.4273 30.9468 31.7617 30.8519C32.0647 30.7658 32.2833 30.4222 32.1825 30.1108C32.0771 29.7848 31.7722 29.6201 31.4414 29.69L31.4412 29.6902Z" fill="black"/>
<path d="M42.1564 39.1439C43.388 38.3602 44.549 37.4701 45.7222 36.6026C46.8923 35.737 48.0615 34.8702 49.2297 34.002C50.3984 33.1338 51.5669 32.2654 52.7318 31.3921L56.2441 28.7593C56.8057 28.3383 57.3654 27.9148 57.9376 27.5085C58.4619 27.1362 58.9954 26.7542 59.5678 26.4588C59.6896 26.396 59.8137 26.3379 59.9399 26.2845L59.7383 26.3696C60.0433 26.2425 60.36 26.144 60.688 26.0984L60.4614 26.1289C60.6567 26.1038 60.8526 26.0985 61.0482 26.1231L60.8203 26.0925C60.9625 26.1126 61.0998 26.1484 61.2323 26.2039L61.0267 26.1172C61.1336 26.1641 61.2345 26.2236 61.3273 26.2944L61.1526 26.1594C61.2521 26.2389 61.341 26.3261 61.4194 26.4266L61.2844 26.252C61.3622 26.3569 61.4273 26.4706 61.4784 26.5907L61.3916 26.3848C61.4655 26.5654 61.5104 26.754 61.5377 26.9469L61.507 26.7181C61.5443 27.0018 61.5455 27.288 61.5351 27.5735C61.5227 27.916 61.5191 28.2585 61.5141 28.6011L61.4985 29.6866C61.496 29.8645 61.5029 30.0414 61.5098 30.2192C61.519 30.4585 61.5523 30.6917 61.5925 30.9277C61.6158 31.0645 61.7255 31.1909 61.8297 31.2715C61.9413 31.3577 62.0857 31.4201 62.2307 31.4135C62.5235 31.4004 62.7878 31.2173 62.8689 30.9277C63.0664 30.2221 63.0916 29.472 63.1561 28.7445C63.2092 28.1453 63.2894 27.5401 63.2492 26.9376C63.2024 26.2371 63.0078 25.5255 62.4799 25.0286C62.0075 24.5839 61.3623 24.3684 60.7171 24.399C59.4775 24.4577 58.4173 25.1449 57.4319 25.8347C56.3527 26.5902 55.3162 27.408 54.2677 28.2051C53.004 29.1659 51.733 30.1179 50.4774 31.0893L50.6401 30.9636L47.3155 33.5138C46.9598 33.7867 46.6035 34.059 46.2487 34.3332L46.403 34.214C45.081 35.2327 43.7435 36.2347 42.4462 37.2846C42.0912 37.5719 41.7426 37.862 41.4012 38.1653C41.1691 38.3715 41.1733 38.7518 41.3525 38.9837C41.5349 39.2198 41.8926 39.3121 42.1565 39.1442L42.1564 39.1439ZM12.8147 23.7583C13.8673 23.1092 14.859 22.3661 15.8748 21.6614C16.6708 21.1092 17.4739 20.5672 18.2773 20.0256C19.0722 19.4896 19.8669 18.9532 20.6544 18.4062C21.6473 17.7167 22.6234 17.0026 23.5925 16.2803C24.1518 15.8635 24.7077 15.4422 25.2768 15.0389C25.8027 14.6663 26.3381 14.2843 26.912 13.9882C27.0328 13.9259 27.1559 13.8682 27.2811 13.8152L27.0815 13.8994C27.3757 13.7766 27.6807 13.6822 27.9968 13.637L27.7729 13.667C27.975 13.6399 28.1786 13.6339 28.3811 13.6605L28.1556 13.6302C28.2892 13.6495 28.4189 13.6829 28.5441 13.7337L28.3406 13.6478C28.4512 13.6945 28.5557 13.7547 28.6515 13.827L28.4784 13.6933C28.5739 13.768 28.66 13.854 28.7349 13.9494L28.6005 13.7755C28.6812 13.8826 28.7482 13.9992 28.8 14.1229L28.7131 13.9167C28.7906 14.1071 28.8387 14.3049 28.8665 14.5083L28.8357 14.2791C28.9146 14.8977 28.8335 15.5282 28.8286 16.149L28.82 17.2317C28.8167 17.6506 28.8336 18.062 28.9209 18.4731C28.9502 18.6112 29.0503 18.7337 29.158 18.8169C29.2697 18.9032 29.4141 18.9655 29.5591 18.959C29.8601 18.9455 30.1043 18.7611 30.1973 18.4731C30.2357 18.3542 30.273 18.2396 30.2925 18.1159C30.3227 17.9248 30.3577 17.7334 30.3784 17.541C30.4067 17.2779 30.4287 17.0139 30.4537 16.7505C30.5028 16.2347 30.5525 15.7206 30.5776 15.2029C30.6005 14.7321 30.5893 14.2572 30.485 13.7951C30.3742 13.3045 30.1052 12.8119 29.7068 12.4973C29.4577 12.3005 29.2199 12.1595 28.9136 12.0605C28.6856 11.9869 28.4371 11.9568 28.1986 11.9516C27.7605 11.942 27.3102 12.0375 26.899 12.1852C25.9928 12.5106 25.2052 13.0632 24.43 13.6224C23.6163 14.2093 22.8263 14.8286 22.0227 15.4294C21.3452 15.936 20.6612 16.4332 19.976 16.9292C18.8592 17.7375 17.726 18.5225 16.5997 19.3172C15.2512 20.2686 13.9136 21.2389 12.6314 22.2784C12.434 22.4384 12.2472 22.6081 12.0596 22.7795C11.8303 22.989 11.8297 23.3634 12.0109 23.5979C12.1953 23.8365 12.5485 23.9227 12.8149 23.7584L12.8147 23.7583ZM18.3598 37.6616C18.4913 37.1878 18.6563 36.7189 18.8471 36.2656L18.7824 36.4189C18.9525 36.018 19.1561 35.6268 19.422 35.2805L19.3126 35.4221C19.4791 35.208 19.6689 35.0144 19.8833 34.848L19.7353 34.9624C19.8073 34.9073 19.8791 34.8518 19.9506 34.7961L19.8022 34.9108C20.0079 34.7534 20.2322 34.6245 20.4704 34.5229L20.2935 34.5976C20.5519 34.4897 20.8217 34.4133 21.099 34.3737L20.9 34.4005C21.1614 34.3652 21.4264 34.3645 21.688 34.3984L21.4871 34.3714C21.7499 34.4082 22.0069 34.4786 22.2517 34.5809L22.0702 34.5043C22.317 34.6096 22.5495 34.7455 22.7623 34.9088L22.6085 34.7899C22.8417 34.9708 23.0492 35.1805 23.2309 35.413L23.1119 35.259C23.2768 35.4731 23.4025 35.7081 23.5076 35.9566L23.4309 35.7748C23.7482 36.5318 23.9134 37.3533 24.048 38.1597C24.0897 38.4109 24.1275 38.6627 24.1613 38.915L24.134 38.7123C24.2104 39.2814 24.3083 39.8473 24.3849 40.4164L24.3598 40.2296C24.3935 40.4814 24.4179 40.7349 24.4567 40.986L24.4327 40.8069C24.4396 40.8939 24.4535 40.9806 24.4636 41.0674C24.4743 41.1592 24.4777 41.2537 24.5096 41.3408C24.5154 41.357 24.5213 41.3732 24.5273 41.3893C24.5397 41.4227 24.5525 41.4526 24.567 41.4868C24.6011 41.5675 24.6466 41.6249 24.7008 41.6934L24.5218 41.2611L24.5224 41.2736C24.5305 41.4352 24.5851 41.5896 24.7015 41.706C24.8075 41.812 24.9815 41.8919 25.1338 41.885C25.4514 41.8708 25.7622 41.6158 25.7452 41.2736L25.7445 41.2611L25.6611 41.5696C25.8101 41.3385 25.7831 41.0304 25.7799 40.7675C25.7774 40.5576 25.7696 40.3477 25.7615 40.138C25.7401 39.589 25.7049 39.0436 25.6307 38.499C25.498 37.5236 25.3324 36.529 24.9903 35.6021C24.9003 35.3583 24.8008 35.1153 24.6796 34.8852C24.5566 34.6514 24.3971 34.4421 24.2281 34.2395C23.7784 33.7006 23.1819 33.3037 22.5252 33.064C22.2061 32.9476 21.8617 32.8923 21.5236 32.8726C21.1766 32.8525 20.82 32.8943 20.4823 32.973C19.8426 33.1223 19.2093 33.4492 18.7423 33.9149C17.9256 34.7292 17.5598 35.8647 17.3708 36.9751C17.3484 37.1066 17.3209 37.237 17.2953 37.368C17.2666 37.5153 17.2731 37.6603 17.351 37.7933C17.418 37.9078 17.5493 38.0171 17.6809 38.047C17.9731 38.1136 18.2773 37.9593 18.36 37.6615L18.3598 37.6616ZM2.36502 35.7173C3.34799 35.3173 4.32471 34.9021 5.29481 34.4718C6.23424 34.0549 7.16703 33.6232 8.09283 33.1769C9.01385 32.7328 9.92374 32.2663 10.8269 31.7871C11.7346 31.3055 12.6346 30.8096 13.5266 30.2996C14.4143 29.792 15.2974 29.276 16.1715 28.7452C16.3116 28.6607 16.444 28.564 16.5672 28.4564C16.7262 28.3173 16.7586 28.028 16.6451 27.8521C16.599 27.7804 16.538 27.7194 16.4663 27.6733C16.3712 27.6119 16.1901 27.5801 16.0821 27.623C15.9373 27.6805 15.8 27.7414 15.6667 27.822C15.3579 28.0088 15.0479 28.1938 14.7369 28.377C14.331 28.6162 13.9241 28.854 13.5135 29.0853C12.6835 29.5528 11.8466 30.0082 11.0032 30.4512C9.31708 31.337 7.60566 32.1788 5.87625 32.9768C4.90221 33.4262 3.92085 33.8596 2.93257 34.2767L3.06678 34.2201C2.73417 34.3604 2.40081 34.4989 2.06672 34.6356C1.92579 34.6932 1.81148 34.7566 1.73148 34.8933C1.66115 35.0136 1.63132 35.1908 1.67491 35.3256C1.71881 35.4613 1.80297 35.5923 1.9327 35.6608C2.05705 35.7266 2.22838 35.773 2.36496 35.7174L2.36502 35.7173ZM7.92425 38.6199C9.26025 38.0523 10.558 37.3969 11.8495 36.7358C13.2126 36.038 14.5678 35.3241 15.9434 34.651C16.6464 34.3071 17.3713 33.9974 18.0537 33.6135C18.2486 33.504 18.3217 33.2544 18.2371 33.0539C18.1534 32.8557 17.9231 32.7276 17.7084 32.7945C17.0133 33.011 16.3531 33.3459 15.7028 33.6693C15.029 34.0045 14.361 34.3513 13.6947 34.7013C12.3396 35.4135 10.9928 36.1419 9.62524 36.8301C8.91644 37.1869 8.20182 37.5329 7.47478 37.8511C7.37942 37.8928 7.29654 38.0216 7.27017 38.1172C7.2408 38.2237 7.25404 38.3656 7.31504 38.4602C7.37635 38.5552 7.46755 38.6389 7.58108 38.6648C7.70595 38.6932 7.80758 38.6695 7.92412 38.6199L7.92425 38.6199Z" fill="black"/>
<path d="M25.8803 38.0931C26.5254 37.835 27.175 37.5884 27.8198 37.3297C29.7481 36.5561 31.6945 35.8284 33.6574 35.1471C34.393 34.8917 35.142 34.6621 35.8641 34.3705C35.9878 34.3206 36.0886 34.2636 36.1586 34.1441C36.2204 34.0385 36.2466 33.8828 36.2083 33.7644C36.1251 33.5073 35.8696 33.3509 35.6022 33.4203C34.93 33.595 34.2729 33.8369 33.6178 34.0671C31.6516 34.7578 29.7021 35.4951 27.771 36.2785C27.015 36.5852 26.2686 36.9144 25.5236 37.2468C25.4285 37.2892 25.3333 37.4248 25.3108 37.5235C25.2872 37.627 25.2926 37.7266 25.3342 37.8249C25.4155 38.0177 25.6655 38.1789 25.8803 38.093V38.0931ZM25.8827 43.7405C26.7947 43.4101 27.7057 43.0769 28.6163 42.7425C29.6708 42.355 30.7247 41.9659 31.778 41.5751C32.8778 41.1671 33.977 40.7572 35.0739 40.3415C36.1315 39.9406 37.1885 39.5383 38.2446 39.1336C38.7299 38.9477 39.2149 38.7612 39.6998 38.5741C40.1791 38.3891 40.6677 38.2178 41.1384 38.0117C41.2356 37.9692 41.3323 37.9258 41.4292 37.8828C41.5328 37.8368 41.6366 37.6886 41.6611 37.5813C41.6868 37.4684 41.6808 37.3599 41.6357 37.2528C41.5433 37.0339 41.2798 36.8791 41.0405 36.9607C40.6047 37.1091 40.1783 37.2818 39.7493 37.4485C39.274 37.6331 38.7984 37.8171 38.3226 38.0005C37.2777 38.4032 36.232 38.804 35.1855 39.2028C34.0888 39.621 32.9923 40.0398 31.8961 40.4592C30.8389 40.8635 29.781 41.2662 28.7226 41.6673C27.793 42.0197 26.8628 42.3701 25.9317 42.7185L25.6318 42.8306C25.5141 42.8745 25.4152 42.9358 25.3498 43.0474C25.2906 43.1486 25.2655 43.2977 25.3022 43.4111C25.3759 43.6387 25.6342 43.8307 25.8827 43.7407V43.7405ZM33.3557 46.776C34.9236 46.2381 36.4743 45.6509 38.0053 45.0153C38.471 44.8219 38.9334 44.6207 39.3975 44.4236L39.2762 44.4748C40.1507 44.113 41.0188 43.736 41.8801 43.3441C42.0006 43.2892 42.1042 43.1312 42.1379 43.0088C42.1749 42.8746 42.1582 42.6958 42.0814 42.5766C41.9082 42.308 41.5949 42.2341 41.3139 42.3754C40.1721 42.9495 39.0195 43.4988 37.8421 43.9961L37.9629 43.9451C36.3598 44.6217 34.7348 45.2452 33.0906 45.8144C32.9671 45.8572 32.8601 45.9282 32.7926 46.0435C32.7301 46.1504 32.7036 46.3079 32.7423 46.4277C32.8213 46.6718 33.0915 46.8666 33.3557 46.776Z" fill="black"/>
<path d="M11.1754 43.7975C15.7398 43.1001 20.3422 42.6786 24.9574 42.5352C24.615 42.8093 24.7839 43.3561 24.9967 43.7398C26.6138 46.6557 28.8497 49.7909 32.1217 50.4326C35.3938 51.0742 39.6292 48.8819 41.0408 45.861C41.2701 45.3703 41.4543 44.8271 41.8734 44.484C42.2935 44.14 41.3021 43.2376 41.8419 43.1796C45.5088 42.7862 50.8649 43.3275 54.3766 44.4539C55.1267 44.6945 55.9299 45.0683 56.2228 45.7995C56.6987 46.9877 55.5369 48.1913 54.3928 48.7653C53.3581 49.2844 52.241 49.6182 51.1185 49.9009C43.648 51.782 35.7502 51.4732 28.2002 49.9418C20.6502 48.4104 13.396 45.6893 6.27026 42.7616" fill="black"/>
<path d="M11.1753 44.3228C14.7475 43.9082 18.3232 43.5117 21.9158 43.3162C22.9292 43.261 23.9424 43.2186 24.9573 43.2062L24.4828 42.0606C23.7864 42.6417 24.1146 43.6366 24.4832 44.2943C24.8248 44.9039 25.1842 45.5037 25.5712 46.0856C26.3611 47.2733 27.2635 48.4163 28.3672 49.3287C29.4493 50.2232 30.7193 50.9309 32.1204 51.1548C33.4457 51.3667 34.803 51.2132 36.0734 50.7895C37.3908 50.3501 38.613 49.6566 39.6621 48.7466C40.1689 48.3069 40.6143 47.8091 41.0109 47.2685C41.4006 46.7376 41.6439 46.1582 41.9362 45.5738C41.999 45.4482 42.1026 45.2605 42.161 45.1848C42.2422 45.0794 42.436 44.9336 42.5304 44.7835C42.706 44.5046 42.7135 44.1544 42.6178 43.8464C42.5759 43.711 42.5142 43.5806 42.4566 43.4516C42.4356 43.4044 42.415 43.3562 42.3917 43.3099C42.3818 43.2901 42.3508 43.2177 42.3932 43.3169C42.4408 43.4282 42.3984 43.3112 42.3855 43.2915C42.3277 43.2036 42.3845 43.2541 42.3808 43.3524C42.3854 43.2299 42.2914 43.6279 42.3017 43.6102C42.2544 43.6914 42.1321 43.7992 42.0472 43.839C42.0255 43.8491 41.8394 43.8785 41.9423 43.874C41.9759 43.8726 42.0099 43.8675 42.0434 43.8643C42.1347 43.8559 42.226 43.848 42.3173 43.8408C43.7359 43.7286 45.165 43.7485 46.5841 43.8399C47.3438 43.8888 48.1019 43.9597 48.8575 44.0527C49.0486 44.0762 49.1362 44.0875 49.2685 44.1058C49.4687 44.1335 49.6686 44.1629 49.8683 44.1939C50.2355 44.2507 50.6019 44.3133 50.9672 44.3816C51.6623 44.5119 52.3544 44.6622 53.0388 44.8404C53.3564 44.9228 53.6721 45.0123 53.9857 45.109C54.1309 45.1539 54.2758 45.1999 54.4188 45.2514C54.4991 45.2803 54.5796 45.3096 54.6581 45.3432C54.6433 45.3369 54.572 45.305 54.649 45.3416C54.7041 45.3677 54.7595 45.3933 54.8137 45.4213C54.8784 45.4545 54.942 45.4897 55.0043 45.527C55.0348 45.5452 55.1993 45.6528 55.1664 45.6288C55.1079 45.5861 55.199 45.6552 55.2024 45.6581C55.2374 45.689 55.2726 45.7196 55.306 45.7523C55.3373 45.7828 55.4825 45.9683 55.4146 45.866C55.4531 45.9242 55.489 45.9841 55.5222 46.0455C55.5926 46.1753 55.5414 46.0957 55.5321 46.0669C55.5433 46.1018 55.5544 46.1364 55.5639 46.1718C55.5732 46.2066 55.5809 46.2415 55.5885 46.2766C55.5616 46.1522 55.5868 46.2555 55.587 46.2879C55.5872 46.3363 55.5662 46.5729 55.5913 46.4348C55.5705 46.5496 55.5389 46.6623 55.497 46.7713C55.5028 46.7566 55.539 46.681 55.5005 46.7578C55.4622 46.8342 55.4221 46.9093 55.377 46.9819C55.3572 47.0136 55.3368 47.0448 55.3158 47.0756C55.3057 47.0906 55.2107 47.2163 55.2736 47.1378C55.0432 47.425 54.7944 47.6425 54.5504 47.8087C53.8898 48.2586 53.1697 48.5181 52.4168 48.7606C51.5933 49.0258 50.751 49.2339 49.9073 49.4231C46.4902 50.1894 43.0159 50.4948 39.4996 50.4505C35.9832 50.4062 32.531 50.0159 29.097 49.3548C25.6269 48.6867 22.2105 47.7576 18.8498 46.6691C15.4829 45.5786 12.1701 44.3282 8.88632 43.0104C8.08028 42.6865 7.27556 42.3593 6.47217 42.0288C6.10347 41.8774 5.6211 42.1926 5.53758 42.5595C5.43691 43.0015 5.67339 43.3319 6.06827 43.4941C9.37067 44.8504 12.6948 46.1582 16.0688 47.327C19.422 48.4887 22.8262 49.5126 26.288 50.2985C29.79 51.0935 33.3555 51.6429 36.9419 51.8555C40.5364 52.0687 44.1476 51.9249 47.7052 51.3585C49.4392 51.0825 51.1849 50.7272 52.8564 50.1828C54.3604 49.6929 56.1426 48.9624 56.8296 47.4102C57.1689 46.6435 57.1644 45.7579 56.6575 45.0596C56.1816 44.404 55.4617 44.0397 54.711 43.783C53.3868 43.3302 51.996 43.0506 50.616 42.8328C49.0686 42.5885 47.5066 42.4278 45.941 42.3656C45.2152 42.3368 44.4884 42.3291 43.7623 42.3487C43.4207 42.3579 43.0793 42.3733 42.7384 42.3962C42.3865 42.4197 41.9986 42.4184 41.6547 42.5003C41.2585 42.5947 40.9709 42.9213 40.9736 43.3387C40.9754 43.6202 41.1109 43.8707 41.2249 44.1197C41.2505 44.1756 41.277 44.313 41.2348 44.1375C41.2446 44.1782 41.2632 44.2203 41.2766 44.2602C41.2747 44.2545 41.2935 44.339 41.295 44.3395C41.2933 44.3389 41.2774 44.1809 41.2784 44.2475C41.2797 44.3219 41.2957 44.1405 41.2933 44.1492C41.3091 44.0927 41.3929 43.9753 41.392 43.9752C41.3093 43.9613 41.045 44.3528 41.0057 44.4062C40.891 44.562 40.7965 44.7293 40.7123 44.9034C40.4223 45.5023 40.1627 46.077 39.7718 46.6203C39.6998 46.7203 39.7968 46.5945 39.718 46.69C39.6683 46.7503 39.6187 46.8105 39.5678 46.8696C39.4576 46.9977 39.3433 47.1221 39.2251 47.2429C38.9761 47.497 38.7117 47.7356 38.4335 47.9573C38.4223 47.9663 38.3093 48.0542 38.3672 48.0099C38.4186 47.9705 38.3272 48.0395 38.327 48.0395C38.2893 48.0669 38.252 48.095 38.2143 48.1223C38.0815 48.2182 37.9464 48.3108 37.8089 48.3999C37.5325 48.5791 37.2474 48.7444 36.9545 48.8952C36.7766 48.9868 36.596 49.0731 36.4129 49.154C36.399 49.1601 36.2654 49.2174 36.3354 49.188C36.3977 49.1619 36.2909 49.2059 36.2897 49.2064C36.2461 49.2236 36.2027 49.2412 36.159 49.2582C35.8441 49.3804 35.5229 49.4857 35.1968 49.5734C34.8867 49.6566 34.5732 49.7199 34.2564 49.7709C34.1725 49.7844 34.2643 49.7709 34.2776 49.7692C34.1663 49.7836 34.0547 49.7957 33.9429 49.8053C33.777 49.8196 33.6108 49.8282 33.4444 49.831C33.2912 49.8335 33.1379 49.8312 32.9849 49.8233C32.9199 49.82 32.855 49.8157 32.7901 49.8104C32.7471 49.8068 32.7042 49.8024 32.6612 49.7985C32.6469 49.7971 32.5121 49.782 32.596 49.7923C32.6678 49.8012 32.4709 49.7728 32.4372 49.7668C32.1932 49.7237 31.9521 49.6663 31.7149 49.5949C31.5206 49.5364 31.3292 49.469 31.1412 49.3927C31.2418 49.4331 31.1309 49.3884 31.1155 49.3815C31.0287 49.3428 30.9427 49.3026 30.8573 49.2609C30.5581 49.1137 30.2694 48.9453 29.9922 48.7601C29.6694 48.5444 29.559 48.4591 29.275 48.2156C29.0143 47.9921 28.7654 47.7551 28.5266 47.5083C28.2842 47.2577 28.0531 46.9964 27.8304 46.7279C27.5842 46.431 27.4691 46.2817 27.2499 45.9791C26.8294 45.3985 26.442 44.7945 26.0765 44.178C25.9083 43.8944 25.7401 43.6095 25.5853 43.3184C25.5648 43.2799 25.4886 43.1251 25.5007 43.1546C25.513 43.185 25.4596 43.0129 25.4503 42.9771C25.4872 43.1195 25.4262 42.903 25.4515 42.9044C25.5127 42.9076 25.2911 43.1481 25.4319 43.0095C25.8319 42.6161 25.5465 41.834 24.9574 41.8639C21.3388 42.0478 17.7355 42.2969 14.1421 42.7754C13.1002 42.9141 12.0685 43.0955 11.0358 43.2909C10.4618 43.3994 10.5844 44.3914 11.1754 44.3228L11.1753 44.3228Z" fill="black"/>
</svg>
