<svg width="40" height="40" viewBox="0 0 40 40" fill="none" xmlns="http://www.w3.org/2000/svg">
<path d="M0 20C0 8.95431 8.95431 0 20 0C31.0457 0 40 8.95431 40 20C40 31.0457 31.0457 40 20 40C8.95431 40 0 31.0457 0 20Z" fill="url(#paint0_linear_88_3375)"/>
<path fill-rule="evenodd" clip-rule="evenodd" d="M20.707 28.9999C20.983 28.9997 21.207 28.7759 21.207 28.4999V15.4139L24.8535 19.0604C25.0487 19.2556 25.3653 19.2557 25.5605 19.0604L26.2675 18.3534C26.4628 18.1582 26.4627 17.8416 26.2675 17.6464L20.914 12.2928C20.5235 11.9023 19.8905 11.9023 19.5 12.2928L14.1464 17.6464C13.9512 17.8416 13.9512 18.1581 14.1464 18.3534L14.8535 19.0604C15.0487 19.2556 15.3653 19.2557 15.5605 19.0604L19.207 15.4139V28.4999C19.207 28.776 19.4309 28.9999 19.707 28.9999H20.707Z" fill="black"/>
<defs>
<linearGradient id="paint0_linear_88_3375" x1="20" y1="1.24327e-06" x2="69.9344" y2="57.0035" gradientUnits="userSpaceOnUse">
<stop stop-color="#76FBA2"/>
<stop offset="1" stop-color="#2DC276"/>
</linearGradient>
</defs>
</svg>
