<svg width="24" height="24" viewBox="0 0 24 24" fill="none" xmlns="http://www.w3.org/2000/svg">
<path d="M9.87931 8.6491L10.1225 9.43876C10.7771 11.5612 12.4388 13.2229 14.5612 13.8775L15.3509 14.1207C16.2164 14.3876 16.2164 15.6123 15.3509 15.8793L14.5612 16.1225C12.4388 16.7771 10.7771 18.4388 10.1225 20.5612L9.87931 21.3509C9.61235 22.2164 8.38765 22.2164 8.1207 21.3509L7.87747 20.5612C7.22293 18.4388 5.56122 16.7771 3.43876 16.1225L2.6491 15.8793C1.78363 15.6123 1.78363 14.3876 2.6491 14.1207L3.43876 13.8775C5.56122 13.2229 7.22293 11.5612 7.87747 9.43876L8.1207 8.6491C8.38699 7.78363 9.61235 7.78363 9.87931 8.6491Z" stroke="black" stroke-width="1.4"/>
<path d="M18.0653 2.41728L18.2216 2.92492C18.6424 4.28935 19.7106 5.3576 21.0751 5.77837L21.5827 5.93473C22.1391 6.10635 22.1391 6.89365 21.5827 7.06527L21.0751 7.22163C19.7106 7.6424 18.6424 8.71065 18.2216 10.0751L18.0653 10.5827C17.8937 11.1391 17.1063 11.1391 16.9347 10.5827L16.7784 10.0751C16.3576 8.71065 15.2894 7.6424 13.9249 7.22163L13.4173 7.06527C12.8609 6.89365 12.8609 6.10635 13.4173 5.93473L13.9249 5.77837C15.2894 5.3576 16.3576 4.28935 16.7784 2.92492L16.9347 2.41728C17.1059 1.86091 17.8937 1.86091 18.0653 2.41728Z" stroke="black" stroke-width="1.4"/>
</svg>
