<svg width="24" height="24" viewBox="0 0 24 24" fill="none" xmlns="http://www.w3.org/2000/svg">
<path d="M18.9103 13.3303C19.2804 13.4408 19.491 13.8301 19.381 14.2004C18.4987 17.1649 15.879 19.3821 12.7014 19.6691V21.301H15.0012C15.3876 21.3012 15.7014 21.6147 15.7014 22.0012C15.7012 22.3875 15.3875 22.7011 15.0012 22.7014H9.00116C8.61465 22.7014 8.30112 22.3876 8.30097 22.0012C8.30097 21.6146 8.61456 21.301 9.00116 21.301H11.301V19.6682C8.12248 19.3819 5.50192 17.1654 4.61933 14.2004C4.50933 13.83 4.72061 13.4405 5.09101 13.3303C5.46134 13.2205 5.85092 13.4316 5.96112 13.8019C6.736 16.4043 9.14765 18.3009 12.0002 18.301C14.8527 18.3008 17.2644 16.4043 18.0392 13.8019C18.1495 13.4314 18.5398 13.22 18.9103 13.3303ZM12.0002 1.20038C14.3749 1.20048 16.3 3.12542 16.3 5.50018V12.5002C16.2999 14.8749 14.3749 16.7999 12.0002 16.8C9.62543 16.8 7.70049 14.8749 7.70038 12.5002V5.50018C7.70038 3.12536 9.62536 1.20038 12.0002 1.20038ZM12.0002 2.79999C10.509 2.79999 9.29999 4.00901 9.29999 5.50018V12.5002C9.3001 13.9913 10.5091 15.2004 12.0002 15.2004C13.4912 15.2003 14.7003 13.9912 14.7004 12.5002V5.50018C14.7004 4.00908 13.4913 2.80009 12.0002 2.79999Z" fill="black"/>
</svg>
